<svg id="Layer_1" data-name="Layer 1" xmlns="http://www.w3.org/2000/svg" viewBox="0 0 256 152.39"><title>iconfinder_woocommerce_1010057</title><path d="M23.76,51.5H232.14A23.86,23.86,0,0,1,256,75.36V154.9a23.86,23.86,0,0,1-23.86,23.87H157.41l10.26,25.12-45.11-25.12H23.86A23.86,23.86,0,0,1,0,154.9V75.36A23.76,23.76,0,0,1,23.76,51.5Z" transform="translate(0 -51.5)" style="fill:#9b5c8f"/><path d="M14.58,73.25A8.37,8.37,0,0,1,21.13,70c5.31-.41,8.33,2.08,9.06,7.5C33.41,99.27,37,117.69,40.7,132.77L63.49,89.38c2.08-3.95,4.68-6,7.8-6.24,4.58-.32,7.39,2.6,8.54,8.74a194.66,194.66,0,0,0,9.88,35.59C92.42,101,97,82,103.45,70.23a8,8,0,0,1,6.87-4.58,9,9,0,0,1,6.55,2.08,8.17,8.17,0,0,1,3.23,5.94,9.07,9.07,0,0,1-1,5C115,86.15,111.67,98.75,109,116.23c-2.61,17-3.54,30.18-2.92,39.65a12.35,12.35,0,0,1-1.25,6.87,6.72,6.72,0,0,1-5.51,3.74c-2.71.21-5.52-1-8.22-3.85q-14.52-14.82-23-44.33-10.15,20-15,30c-6.14,11.76-11.34,17.8-15.71,18.11-2.81.21-5.2-2.19-7.29-7.18q-7.95-20.46-17.17-79A8.88,8.88,0,0,1,14.58,73.25ZM238.21,89.59a23.93,23.93,0,0,0-16.65-12.07,27,27,0,0,0-5.62-.63c-10,0-18.1,5.21-24.45,15.61a55.18,55.18,0,0,0-8.12,29.35q0,12,5,20.6A23.93,23.93,0,0,0,205,154.52a27,27,0,0,0,5.62.63c10.09,0,18.21-5.2,24.45-15.61a55.77,55.77,0,0,0,8.12-29.45C243.31,102,241.54,95.21,238.21,89.59ZM225.1,118.41c-1.46,6.87-4.06,12-7.91,15.41-3,2.7-5.82,3.85-8.43,3.33s-4.58-2.71-6.14-6.77a26.35,26.35,0,0,1-1.87-9.47,36.29,36.29,0,0,1,.73-7.6A33.76,33.76,0,0,1,207,100.93c3.44-5.1,7.08-7.18,10.83-6.45,2.49.52,4.58,2.7,6.14,6.76a26.43,26.43,0,0,1,1.87,9.47A36.47,36.47,0,0,1,225.1,118.41Zm-52-28.82a24.18,24.18,0,0,0-16.65-12.07,27.1,27.1,0,0,0-5.62-.63c-10,0-18.11,5.21-24.46,15.61a55.17,55.17,0,0,0-8.11,29.35q0,12,5,20.6a24,24,0,0,0,16.65,12.07,27.1,27.1,0,0,0,5.62.63c10.1,0,18.21-5.2,24.46-15.61a55.77,55.77,0,0,0,8.11-29.45C178.06,102,176.4,95.21,173.07,89.59Zm-13.22,28.82c-1.45,6.87-4.06,12-7.91,15.41-3,2.7-5.82,3.85-8.43,3.33s-4.57-2.71-6.14-6.77a26.56,26.56,0,0,1-1.87-9.47,36.29,36.29,0,0,1,.73-7.6,33.78,33.78,0,0,1,5.52-12.38c3.43-5.1,7.07-7.18,10.82-6.45,2.5.52,4.58,2.7,6.14,6.76a26.43,26.43,0,0,1,1.87,9.47,30.44,30.44,0,0,1-.73,7.7Z" transform="translate(0 -51.5)" style="fill:#fff"/></svg>