<svg id="Layer_1" data-name="Layer 1" xmlns="http://www.w3.org/2000/svg" viewBox="0 0 512 512"><title>zomato-01-icon</title><path d="M0,454V271c27-1.2,53.9-3.16,80.88-.89,7.94.66,16,.95,23.31,4.77a107.62,107.62,0,0,1,34.3,27.84c23.18,28.63,53.27,45.28,88.9,52.22,24,4.68,48.12,2.43,72-2,32.15-5.94,63-15.56,90.52-33.84,17.51-11.62,32-26,40.44-45.71a42.2,42.2,0,0,0,0-34.83c-7.81-18.22-20.52-32.46-36.8-43.08-49.05-32-103.32-45.19-161.23-38.95-37,4-68.12,21.87-92.23,50.82a126.69,126.69,0,0,1-32.82,28.13,37.24,37.24,0,0,1-15,5.26,306.41,306.41,0,0,1-32.89,2.15C39.59,243,19.8,242,0,241V58c1.59-.71,1-2.3,1.33-3.49Q11.94,11.91,54.52,1.33C55.7,1,57.29,1.59,58,0H453c.48,1.24,1.63.84,2.54,1q41.4,8.75,54,49.12c.92,2.92.58,6.18,2.41,8.85V454c-1.8,1.2-1.29,3.28-1.72,4.93-6.69,26-23,42.67-48.43,50.67-2.92.92-6.18.57-8.85,2.4H58c-.72-1.59-2.3-1-3.49-1.32q-42.6-10.62-53.18-53.19C1,456.3,1.59,454.72,0,454Z" style="fill:#ca202e"/><path d="M0,241c19.8,1,39.59,2,59.43,1.91a306.41,306.41,0,0,0,32.89-2.15,37.24,37.24,0,0,0,15-5.26,126.69,126.69,0,0,0,32.82-28.13c24.11-29,55.28-46.84,92.23-50.82,57.91-6.24,112.18,6.95,161.23,38.95,16.28,10.62,29,24.86,36.8,43.08a42.2,42.2,0,0,1,0,34.83c-8.47,19.71-22.93,34.09-40.44,45.71C362.37,337.4,331.54,347,299.39,353c-23.88,4.41-48,6.66-72,2-35.63-6.94-65.72-23.59-88.9-52.22a107.62,107.62,0,0,0-34.3-27.84c-7.33-3.82-15.37-4.11-23.31-4.77C53.9,267.84,27,269.8,0,271Zm311.27-50.85c-.51-1.33-.54-1.79-.74-1.88a14.69,14.69,0,0,0-2.78-1c-18.39-4.07-36.92-6.75-55.84-6.57A123,123,0,0,0,200,193c-3.31,1.57-5.22,4-3.54,7.55s4.75,3.88,8,2c25.17-14.33,52.62-16.39,80.71-15C293.71,188,302.27,188.38,311.27,190.15Z" style="fill:#fefdfd"/><path d="M311.27,190.15c-9-1.77-17.56-2.19-26.12-2.6-28.09-1.34-55.54.72-80.71,15-3.27,1.87-6.36,1.48-8-2s.23-6,3.54-7.55a123,123,0,0,1,51.95-12.35c18.92-.18,37.45,2.5,55.84,6.57a14.69,14.69,0,0,1,2.78,1C310.73,188.36,310.76,188.82,311.27,190.15Z" style="fill:#cc2933"/></svg>