<svg id="Layer_1" data-name="Layer 1" xmlns="http://www.w3.org/2000/svg" viewBox="0 0 65 65"><title>service-1</title><g id="group-11svg"><path id="path-1" d="M65,57a8,8,0,0,1-8,8H14a8,8,0,0,1-8-8V13a8,8,0,0,1,8-8H57a8,8,0,0,1,8,8Z" style="fill:#a999f6"/><path id="path-2" d="M52.5,63H9.5A9.56,9.56,0,0,1,0,53.5V9.5A9.5,9.5,0,0,1,9.5,0h43A9.5,9.5,0,0,1,62,9.5v44A9.56,9.56,0,0,1,52.5,63ZM9.5,3A6.49,6.49,0,0,0,3,9.5v44A6.49,6.49,0,0,0,9.5,60h43A6.49,6.49,0,0,0,59,53.5V9.5A6.49,6.49,0,0,0,52.5,3Z"/><path id="path-5" d="M32.8,25.3c-3.8,0-7-5.2-7-8.4,0-3.4,3.3-6.4,7-6.4s7,3,7,6.4S36.6,25.3,32.8,25.3Zm0-11.8c-2,0-4,1.7-4,3.4,0,2.2,2.4,5.4,4,5.4s4-3.2,4-5.4A4.1,4.1,0,0,0,32.8,13.5Z"/><path id="path-6" d="M41.2,36a1.42,1.42,0,0,1-1.4-.7,7.61,7.61,0,0,0-14.1.1,1.7,1.7,0,0,1-1.3,1l-2.3.1a1.5,1.5,0,0,1-1.1-.4,1.61,1.61,0,0,1-.5-1.1,12.2,12.2,0,1,1,24.4,0,1.37,1.37,0,0,1-1.5,1.3L41.2,36ZM32.8,25.7A9,9,0,0,0,24,32.4a10.59,10.59,0,0,1,17.6,0A9.12,9.12,0,0,0,32.8,25.7Z"/><path id="path-7" d="M43,46H22a1.5,1.5,0,0,1,0-3H43a1.5,1.5,0,0,1,0,3Z"/><path id="path-8" d="M43,53H22a1.5,1.5,0,0,1,0-3H43a1.5,1.5,0,0,1,0,3Z"/></g></svg>