<svg id="Layer_1" data-name="Layer 1" xmlns="http://www.w3.org/2000/svg" viewBox="0 0 58 64"><title>Group 48</title><g id="group-48svg"><path id="path-1" d="M58,56a8,8,0,0,1-8,8H15a8,8,0,0,1-8-8V12a8,8,0,0,1,8-8H50a8,8,0,0,1,8,8Z" style="fill:#a999f6;fill-rule:evenodd"/><path id="path-2" d="M44.5,63H9.5A9.51,9.51,0,0,1,0,53.5V9.5A9.51,9.51,0,0,1,9.5,0h35A9.51,9.51,0,0,1,54,9.5v44A9.51,9.51,0,0,1,44.5,63ZM9.5,3A6.51,6.51,0,0,0,3,9.5v44A6.51,6.51,0,0,0,9.5,60h35A6.51,6.51,0,0,0,51,53.5V9.5A6.51,6.51,0,0,0,44.5,3Z" style="fill-rule:evenodd"/><path id="path-3" d="M46,14H10a1.5,1.5,0,0,1,0-3H46a1.5,1.5,0,0,1,0,3Z" style="fill-rule:evenodd"/><path id="path-4" d="M46,22H10a1.5,1.5,0,0,1,0-3H46a1.5,1.5,0,0,1,0,3Z" style="fill-rule:evenodd"/><path id="path-5" d="M30.06,31.81l2.32,4.7,5.18.76-3.75,3.66.89,5.17-4.64-2.44L25.42,46.1l.88-5.17-3.75-3.66,5.19-.76Z" style="fill:#fff;fill-rule:evenodd"/><path id="path-6" d="M22.42,46.6a1.53,1.53,0,0,1-.89-.29,1.5,1.5,0,0,1-.59-1.47l.75-4.39L18.5,37.34a1.48,1.48,0,0,1-.38-1.53,1.52,1.52,0,0,1,1.21-1l4.41-.63,2-4a1.51,1.51,0,0,1,1.35-.84h0a1.5,1.5,0,0,1,1.34.84l2,4,4.41.63a1.51,1.51,0,0,1,1.21,1,1.48,1.48,0,0,1-.38,1.53l-3.19,3.11.76,4.39a1.52,1.52,0,0,1-.6,1.47,1.48,1.48,0,0,1-1.58.11l-3.94-2.07-3.95,2.07A1.45,1.45,0,0,1,22.42,46.6Zm.35-9.28,1.58,1.53a1.52,1.52,0,0,1,.43,1.33l-.37,2.17,1.95-1a1.49,1.49,0,0,1,1.39,0l1.95,1-.37-2.17a1.52,1.52,0,0,1,.43-1.33l1.58-1.53L29.16,37A1.5,1.5,0,0,1,28,36.18l-1-2-1,2A1.5,1.5,0,0,1,25,37Z" style="fill-rule:evenodd"/></g></svg>