<svg id="Layer_1" data-name="Layer 1" xmlns="http://www.w3.org/2000/svg" viewBox="0 0 65 57.05"><title>service-10</title><g id="group-24svg"><path id="path-1" d="M65,49.05a8,8,0,0,1-8,8H15a8,8,0,0,1-8-8V13a8,8,0,0,1,8-8H57a8,8,0,0,1,8,8Z" transform="translate(0 -0.01)" style="fill:#a999f6;fill-rule:evenodd"/><path id="path-2" d="M65,18V12.3C65,8,61.31,5,57.06,5H14.73C10.48,5,7,8,7,12.3V18Z" transform="translate(0 -0.01)" style="fill:#8479d1;fill-rule:evenodd"/><path id="path-3" d="M51.5,55.05H9.5A9.51,9.51,0,0,1,0,45.54v-36A9.51,9.51,0,0,1,9.5,0h42A9.51,9.51,0,0,1,61,9.52v36A9.51,9.51,0,0,1,51.5,55.05ZM9.5,3A6.51,6.51,0,0,0,3,9.52v36a6.51,6.51,0,0,0,6.5,6.51h42A6.51,6.51,0,0,0,58,45.54v-36A6.51,6.51,0,0,0,51.5,3Z" transform="translate(0 -0.01)" style="fill-rule:evenodd"/><path id="path-4" d="M59.5,17H1.5A1.5,1.5,0,0,1,0,15.52V9.41A9.54,9.54,0,0,1,9.44,0H51.76A9.44,9.44,0,0,1,61,9.41v6.11A1.5,1.5,0,0,1,59.5,17ZM3,14H58V9.41A6.4,6.4,0,0,0,51.76,3H9.44A6.59,6.59,0,0,0,3,9.41Z" transform="translate(0 -0.01)" style="fill-rule:evenodd"/><path id="path-5" d="M13,8.91a1.7,1.7,0,1,1-1.7-1.7A1.7,1.7,0,0,1,13,8.91Z" transform="translate(0 -0.01)" style="fill-rule:evenodd"/><path id="path-6" d="M18.62,8.91a1.7,1.7,0,1,1-1.7-1.7A1.7,1.7,0,0,1,18.62,8.91Z" transform="translate(0 -0.01)" style="fill-rule:evenodd"/><path id="path-7" d="M24.28,8.91a1.7,1.7,0,1,1-1.7-1.7A1.7,1.7,0,0,1,24.28,8.91Z" transform="translate(0 -0.01)" style="fill-rule:evenodd"/><path id="path-8" d="M41.5,54.55a1.5,1.5,0,0,1-1.5-1.5V16a1.5,1.5,0,1,1,3,0v37A1.5,1.5,0,0,1,41.5,54.55Z" transform="translate(0 -0.01)" style="fill-rule:evenodd"/><path id="path-9" d="M55,26H47a1.5,1.5,0,0,1,0-3h8a1.5,1.5,0,0,1,0,3Z" transform="translate(0 -0.01)" style="fill-rule:evenodd"/><path id="path-10" d="M55,35H47a1.5,1.5,0,0,1,0-3h8a1.5,1.5,0,0,1,0,3Z" transform="translate(0 -0.01)" style="fill-rule:evenodd"/><path id="path-11" d="M55,44H47a1.5,1.5,0,0,1,0-3h8a1.5,1.5,0,0,1,0,3Z" transform="translate(0 -0.01)" style="fill-rule:evenodd"/></g></svg>