<svg id="Layer_1" data-name="Layer 1" xmlns="http://www.w3.org/2000/svg" viewBox="0 0 63 63.05"><title>service-12</title><g id="group-38svg"><path id="path-1" d="M52.78,26.5a1.51,1.51,0,0,1-1.46-1.16A4.32,4.32,0,0,0,47.21,22h-14a4.22,4.22,0,0,0-4.12,3.24,1.5,1.5,0,1,1-2.92-.7,7.22,7.22,0,0,1,7-5.54h14a7.35,7.35,0,0,1,7,5.64,1.5,1.5,0,0,1-1.11,1.81A1.41,1.41,0,0,1,52.78,26.5Z" transform="translate(0 0.01)" style="fill:#a999f6;fill-rule:evenodd"/><path id="path-2" d="M34.84,49.08a1.52,1.52,0,0,1-.88-.29,1.5,1.5,0,0,1-.33-2.1l.45-.61a7.12,7.12,0,0,1,6-3.06h.31a7.17,7.17,0,0,1,6,3l.41.51a1.5,1.5,0,1,1-2.34,1.88L44,47.9a.41.41,0,0,1-.07-.11A4.16,4.16,0,0,0,40.37,46h-.31a4.13,4.13,0,0,0-3.52,1.77l-.48.67A1.53,1.53,0,0,1,34.84,49.08Z" transform="translate(0 0.01)" style="fill:#a999f6;fill-rule:evenodd"/><path id="path-3" d="M39.27,44.52A1.43,1.43,0,0,1,37.92,43V21a1.36,1.36,0,1,1,2.7,0V43A1.43,1.43,0,0,1,39.27,44.52Z" transform="translate(0 0.01)" style="fill:#a999f6;fill-rule:evenodd"/><path id="path-4" d="M53.13,63H47.91a1.5,1.5,0,0,1,0-3h5.22a7.71,7.71,0,0,0,2.29-.35,1.5,1.5,0,0,1,.89,2.87A10.61,10.61,0,0,1,53.13,63ZM39.91,63h-8a1.5,1.5,0,1,1,0-3h8a1.5,1.5,0,0,1,0,3Zm-16,0h-8a1.5,1.5,0,1,1,0-3h8a1.5,1.5,0,0,1,0,3ZM7.92,63l-.22,0A8.73,8.73,0,0,1,.56,57.22a1.5,1.5,0,1,1,2.82-1A5.78,5.78,0,0,0,8.12,60a1.5,1.5,0,0,1-.2,3ZM61.28,57.2a1.57,1.57,0,0,1-.37-.05,1.49,1.49,0,0,1-1.08-1.82,5.9,5.9,0,0,0,.17-1.4V47.71a1.5,1.5,0,0,1,3,0v6.22a9,9,0,0,1-.26,2.14A1.51,1.51,0,0,1,61.28,57.2ZM1.5,50.26A1.5,1.5,0,0,1,0,48.76v-8a1.5,1.5,0,0,1,3,0v8A1.5,1.5,0,0,1,1.5,50.26Zm60-9A1.51,1.51,0,0,1,60,39.7v-8a1.5,1.5,0,0,1,3,0v8A1.51,1.51,0,0,1,61.5,41.21Zm-60-7A1.5,1.5,0,0,1,0,32.75v-8a1.5,1.5,0,0,1,3,0v8A1.5,1.5,0,0,1,1.5,34.25Zm60-9.06a1.5,1.5,0,0,1-1.5-1.5v-8a1.5,1.5,0,1,1,3,0v8A1.5,1.5,0,0,1,61.5,25.19Zm-.32-16a1.5,1.5,0,0,1-1.44-1.07,7.44,7.44,0,0,0-4.35-4.72A1.5,1.5,0,1,1,56.48.63a10.5,10.5,0,0,1,6.14,6.66,1.5,1.5,0,0,1-1,1.86A1.52,1.52,0,0,1,61.18,9.21ZM48,3H40a1.5,1.5,0,0,1,0-3h8a1.5,1.5,0,0,1,0,3ZM32,3H24a1.5,1.5,0,0,1,0-3h8a1.5,1.5,0,0,1,0,3Z" transform="translate(0 0.01)" style="fill-rule:evenodd"/><path id="path-5" d="M15.31,4.07a2.08,2.08,0,0,0-.86-.15H4.52A1.82,1.82,0,0,0,2.71,5.75v10a1.88,1.88,0,0,0,.12.83A1.74,1.74,0,0,0,5.7,17l3.62-3.63,6.42,6.42a1.93,1.93,0,0,0,2.73-2.72L12,10.62l3.7-3.7A1.73,1.73,0,0,0,15.31,4.07Z" transform="translate(0 0.01)" style="fill:#a999f6;fill-rule:evenodd"/></g></svg>