<svg id="Layer_1" data-name="Layer 1" xmlns="http://www.w3.org/2000/svg" viewBox="0 0 65 57.05"><title>service-13</title><g id="group-8svg"><path id="path-1" d="M65,49a8,8,0,0,1-8,8H15a8,8,0,0,1-8-8V13a8,8,0,0,1,8-8H57a8,8,0,0,1,8,8Z" transform="translate(0 0)" style="fill:#a999f6;fill-rule:evenodd"/><path id="path-2" d="M65,18V12.18C65,7.93,61.31,5,57.06,5H14.73C10.48,5,7,7.93,7,12.18V18Z" transform="translate(0 0)" style="fill:#a999f6;fill-rule:evenodd"/><path id="path-3" d="M51.5,55H9.5A9.52,9.52,0,0,1,0,45.53V9.5A9.51,9.51,0,0,1,9.5,0h42A9.51,9.51,0,0,1,61,9.5v36A9.52,9.52,0,0,1,51.5,55ZM9.5,3A6.51,6.51,0,0,0,3,9.5v36A6.51,6.51,0,0,0,9.5,52h42A6.51,6.51,0,0,0,58,45.53V9.5A6.51,6.51,0,0,0,51.5,3Z" transform="translate(0 0)" style="fill-rule:evenodd"/><path id="path-4" d="M59.5,17H1.5A1.5,1.5,0,0,1,0,15.51V9.3A9.5,9.5,0,0,1,9.44,0H51.77A9.27,9.27,0,0,1,61,9.3v6.21A1.5,1.5,0,0,1,59.5,17ZM3,14H58V9.3A6.34,6.34,0,0,0,51.77,3H9.44A6.54,6.54,0,0,0,3,9.3Z" transform="translate(0 0)" style="fill-rule:evenodd"/><path id="path-5" d="M13,8.8a1.7,1.7,0,1,1-1.7-1.7A1.7,1.7,0,0,1,13,8.8Z" transform="translate(0 0)" style="fill-rule:evenodd"/><path id="path-6" d="M18.62,8.8a1.7,1.7,0,1,1-1.7-1.7A1.7,1.7,0,0,1,18.62,8.8Z" transform="translate(0 0)" style="fill-rule:evenodd"/><path id="path-7" d="M24.28,8.8a1.7,1.7,0,1,1-1.7-1.7A1.7,1.7,0,0,1,24.28,8.8Z" transform="translate(0 0)" style="fill-rule:evenodd"/><path id="path-8" d="M27.61,39h-.06a1.54,1.54,0,0,1-1.08-.58l-3.33-3.92a1.51,1.51,0,0,1,2.28-2l2.27,2.66,6.64-6.64a1.49,1.49,0,0,1,2.12,0,1.51,1.51,0,0,1,0,2.12l-7.78,7.84A1.56,1.56,0,0,1,27.61,39Z" transform="translate(0 0)" style="fill-rule:evenodd"/></g></svg>