<svg id="Layer_1" data-name="Layer 1" xmlns="http://www.w3.org/2000/svg" viewBox="0 0 61.01 63.52"><title>Group 20</title><g id="group-20svg"><path id="path-1" d="M41.63,12.93a1.54,1.54,0,0,1-1.05-.43,1.5,1.5,0,0,1,0-2.12l3.83-4L40.56,2.54A1.5,1.5,0,1,1,42.69.43l4.85,4.92a1.5,1.5,0,0,1,0,2.1l-4.85,5A1.53,1.53,0,0,1,41.63,12.93Z" transform="translate(-0.02 0.02)" style="fill-rule:evenodd"/><path id="path-2" d="M1.52,7.47C.69,7.47,0,7,0,6.21a1.58,1.58,0,0,1,1.49-1.6l45-.15h0A1.7,1.7,0,0,1,48,6.18a1.39,1.39,0,0,1-1.5,1.37l-45-.08Z" transform="translate(-0.02 0.02)" style="fill-rule:evenodd"/><path id="path-3" d="M39.25,63.51H19.65a7.31,7.31,0,0,1-7.17-7.33L6.78,26.63A7.16,7.16,0,0,1,14,19.47h20.3" transform="translate(-0.02 0.02)" style="fill:#a999f6;fill-rule:evenodd"/><path id="path-4" d="M61,55.47a8,8,0,0,1-8,8H33.91a8,8,0,0,1-8-8l-3-28a8,8,0,0,1,8-8H50a8,8,0,0,1,8,8Z" transform="translate(-0.02 0.02)" style="fill:#a999f6;fill-rule:evenodd"/><path id="path-5" d="M48,62.5H28.91a9.32,9.32,0,0,1-9.54-9.19l-3-28.11a.76.76,0,0,1,0-.15,9.57,9.57,0,0,1,9.53-9.58H45A9.56,9.56,0,0,1,54.51,25l3,28.1c0,.06,0,.11,0,.16A9.31,9.31,0,0,1,48,62.5ZM19.36,25l3,28.09a.92.92,0,0,1,0,.16,6.34,6.34,0,0,0,6.54,6.28H48a6.35,6.35,0,0,0,6.54-6.2l-3-28.1c0-.05,0-.1,0-.15A6.56,6.56,0,0,0,45,18.47H25.89A6.56,6.56,0,0,0,19.36,25Z" transform="translate(-0.02 0.02)" style="fill-rule:evenodd"/><path id="path-6" d="M34.25,62.5H14.65A8.62,8.62,0,0,1,6,54.08L.31,24.54a1.42,1.42,0,0,1,0-.29A8.73,8.73,0,0,1,9,15.47h20.3a1.5,1.5,0,1,1,0,3H9a5.72,5.72,0,0,0-5.66,5.65L9,53.65a1.27,1.27,0,0,1,0,.28,5.56,5.56,0,0,0,5.67,5.57h19.6a1.5,1.5,0,0,1,0,3Z" transform="translate(-0.02 0.02)" style="fill-rule:evenodd"/></g></svg>