<svg id="Layer_1" data-name="Layer 1" xmlns="http://www.w3.org/2000/svg" viewBox="0 0 62.41 56.4"><title>service-3</title><g id="group-16svg"><path id="path-1" d="M15.5,3.5V34.3A15.1,15.1,0,0,0,30.9,18.9,15.1,15.1,0,0,0,15.5,3.5Z" style="fill:#a999f6"/><path id="path-2" d="M30.3,11.4A29.44,29.44,0,0,1,31.8,19a29.44,29.44,0,0,1-1.5,7.6A7.3,7.3,0,0,0,37.9,19,7.24,7.24,0,0,0,30.3,11.4Z" style="fill:#a999f6"/><path id="path-3" d="M13,33.9a1.54,1.54,0,0,1-1.5-1.5V1.5A1.54,1.54,0,0,1,13,0,16.57,16.57,0,0,1,29.9,16.9,16.59,16.59,0,0,1,13,33.9ZM14.5,3.1V30.8A13.51,13.51,0,0,0,26.9,17,13.54,13.54,0,0,0,14.5,3.1Z"/><path id="path-4" d="M27.3,26a1.43,1.43,0,0,1-1.2-.6,1.4,1.4,0,0,1-.2-1.4,28.54,28.54,0,0,0,1.4-7.1,29.73,29.73,0,0,0-1.4-7.1,1.4,1.4,0,0,1,.2-1.4,1.43,1.43,0,0,1,1.2-.6,8.77,8.77,0,0,1,9.1,9.1A8.77,8.77,0,0,1,27.3,26Zm2.1-14.8a26.08,26.08,0,0,1,.9,5.8,27,27,0,0,1-.9,5.8,5.79,5.79,0,0,0,4-5.8A5.79,5.79,0,0,0,29.4,11.2Z"/><path id="path-5" d="M12.5,11.9H1.5a1.5,1.5,0,0,1,0-3h11a1.5,1.5,0,0,1,0,3Z"/><path id="path-6" d="M12.5,23.9H1.5a1.5,1.5,0,0,1,0-3h11a1.5,1.5,0,0,1,0,3Z"/><path id="path-7" d="M61,56.4a1.54,1.54,0,0,1-1.5-1.5V46.1c0-2.5-1.6-5.2-4.2-5.2h-.1c-4.4-.1-7.8-3.2-7.8-7.2v-10A4.54,4.54,0,0,0,43,18.9H35.4a1.5,1.5,0,0,1,0-3H43a7.54,7.54,0,0,1,7.4,7.8V33.8c0,2.7,2.6,4.2,5,4.2h.1c4.3.2,6.9,4.2,6.9,8.2V55A1.36,1.36,0,0,1,61,56.4Z"/></g></svg>