<svg id="Layer_1" data-name="Layer 1" xmlns="http://www.w3.org/2000/svg" viewBox="0 0 61 60"><title>service-5</title><g id="group-25svg"><path id="path-1" d="M61,52a8,8,0,0,1-8,8H13a8,8,0,0,1-8-8V12a8,8,0,0,1,8-8H53a8,8,0,0,1,8,8Z" style="fill:#a999f6"/><path id="path-2" d="M12.7,60H26V4H12.7C8.3,4,4,7.8,4,12.2v40C4,56.6,8.3,60,12.7,60Z" style="fill:#a999f6"/><path id="path-3" d="M61,44H45V30H61Z" style="fill:#6254c6"/><path id="path-4" d="M53.2,59H45V44H61v7.2A7.68,7.68,0,0,1,53.2,59Z" style="fill:#3626aa"/><path id="path-5" d="M53.2,4H45V31H61V11.7A7.6,7.6,0,0,0,53.2,4Z" style="fill:#8479d1"/><path id="path-6" d="M49.5,59H9.5A9.5,9.5,0,0,1,0,49.5V9.5A9.56,9.56,0,0,1,9.5,0h40A9.56,9.56,0,0,1,59,9.5v40A9.5,9.5,0,0,1,49.5,59ZM9.5,3A6.49,6.49,0,0,0,3,9.5v40A6.49,6.49,0,0,0,9.5,56h40A6.49,6.49,0,0,0,56,49.5V9.5A6.49,6.49,0,0,0,49.5,3Z"/><path id="path-7" d="M40.5,58.5A1.54,1.54,0,0,1,39,57V2a1.5,1.5,0,0,1,3,0V57A1.47,1.47,0,0,1,40.5,58.5Z"/><path id="path-8" d="M23.5,58.5A1.54,1.54,0,0,1,22,57V2a1.5,1.5,0,0,1,3,0V57A1.47,1.47,0,0,1,23.5,58.5Z"/><path id="path-9" d="M57,30H41a1.5,1.5,0,0,1,0-3H57a1.5,1.5,0,0,1,0,3Z"/><path id="path-10" d="M57,43H41a1.5,1.5,0,0,1,0-3H57a1.5,1.5,0,0,1,0,3Z"/></g></svg>