<svg id="Layer_1" data-name="Layer 1" xmlns="http://www.w3.org/2000/svg" viewBox="0 0 63.36 63.2"><title>service-6</title><g id="group-4svg"><path id="path-1" d="M24.9,63.2,39.1,51a4.19,4.19,0,0,1,2.8-1l3.6-.2c16.8,0,17.3-12,16.9-12H48.8a4,4,0,0,1-2.6-.7l-3-2a4.35,4.35,0,0,1-1.9-3.2V24.8a4.22,4.22,0,0,1,1.4-2.9L46,18.3a4.41,4.41,0,0,1,3.2-1.5H62.4c.4,0,.8-.1.9-.4a.76.76,0,0,0-.1-1A21.31,21.31,0,0,0,45.4,6.5a21.83,21.83,0,0,0-20.5,15c-.1.2-.3.7-.7,5.3a9.41,9.41,0,0,1-3.5,6.5L3.5,47.3Z" transform="translate(-0.08)" style="fill:#a999f6"/><path id="path-2" d="M22.9,59.7a1.61,1.61,0,0,1-1.1-.5,1.46,1.46,0,0,1,.2-2.1L36.2,44.9A5.94,5.94,0,0,1,40,43.5h3.6c5.9,0,10.3-1.5,13-4.4A9.7,9.7,0,0,0,59,34.7H46.8a5.5,5.5,0,0,1-3.5-1.2l-2.7-2.1a5.64,5.64,0,0,1-2.2-4.5V19.8a5.61,5.61,0,0,1,1.5-3.9l3.2-3.4a5.57,5.57,0,0,1,4.2-1.7H59.8A20.1,20.1,0,0,0,43.5,3,20.46,20.46,0,0,0,24.4,16.9a36.55,36.55,0,0,0-.6,4.9,11,11,0,0,1-4,7.5L2.5,43.5a1.55,1.55,0,0,1-2.1-.2,1.55,1.55,0,0,1,.2-2.1L17.9,27a7.9,7.9,0,0,0,2.9-5.5c.4-4.7.6-5.2.7-5.6A23.6,23.6,0,0,1,43.5,0a22.69,22.69,0,0,1,19,9.6,3.07,3.07,0,0,1,.2,2.8,2.76,2.76,0,0,1-2.3,1.5H47.3a2.48,2.48,0,0,0-2,.8L42.1,18a2.41,2.41,0,0,0-.7,1.8v7.1a3,3,0,0,0,1,2.2l2.7,2.1a2.72,2.72,0,0,0,1.7.6H60.5c.2,0,1.6.1,1.6,1.9a12.35,12.35,0,0,1-3.3,7.5q-4.95,5.4-15.3,5.4H39.9a2.41,2.41,0,0,0-1.8.7l-14.2,12A1.43,1.43,0,0,1,22.9,59.7Z" transform="translate(-0.08)"/></g></svg>