<svg id="Layer_1" data-name="Layer 1" xmlns="http://www.w3.org/2000/svg" viewBox="0 0 63 47.4"><title>service-7</title><g id="group-30svg"><path id="path-1" d="M59,46.18a27,27,0,0,0,3.64-13.59,28.07,28.07,0,0,0-56.13,0,27.28,27.28,0,0,0,3.61,13.63Z" transform="translate(0.01 0.22)" style="fill:#a999f6;fill-rule:evenodd"/><path id="path-2" d="M29.44,32.45,42.8,15,33.73,35a2.52,2.52,0,0,1-4.59-2A2.86,2.86,0,0,1,29.44,32.45Z" transform="translate(0.01 0.22)" style="fill-rule:evenodd"/><path id="path-3" d="M57.65,47.18H5.36a1.49,1.49,0,0,1-1.28-.72A29.51,29.51,0,0,1,0,31.24a31.5,31.5,0,1,1,63,.09h0a29,29,0,0,1-4.07,15.13A1.52,1.52,0,0,1,57.65,47.18Zm-51.43-3H56.79A26.2,26.2,0,0,0,60,31.33a28.5,28.5,0,1,0-57-.09H3A26.79,26.79,0,0,0,6.22,44.18Z" transform="translate(0.01 0.22)" style="fill-rule:evenodd"/><path id="path-4" d="M31.15,9.65a1.5,1.5,0,0,1-1.5-1.5v-6a1.5,1.5,0,1,1,3,0v6A1.5,1.5,0,0,1,31.15,9.65Z" transform="translate(0.01 0.22)" style="fill-rule:evenodd"/><path id="path-5" d="M8.65,30.17h-7a1.51,1.51,0,0,1,0-3h7a1.51,1.51,0,0,1,0,3Z" transform="translate(0.01 0.22)" style="fill-rule:evenodd"/><path id="path-6" d="M60.65,30.17h-7a1.51,1.51,0,0,1,0-3h7a1.51,1.51,0,0,1,0,3Z" transform="translate(0.01 0.22)" style="fill-rule:evenodd"/></g></svg>