<svg id="Layer_1" data-name="Layer 1" xmlns="http://www.w3.org/2000/svg" viewBox="0 0 52 66.17"><title>service-8</title><g id="group-18svg"><path id="path-1" d="M44.13,6h-27C12,6,7,10.37,7,15.55V66.17L18.53,52h25.6C49.31,52,52,47.73,52,42.55v-27C52,10.37,49.31,6,44.13,6Z" style="fill:#a999f6;fill-rule:evenodd"/><path id="path-2" d="M1.5,63.67a1.69,1.69,0,0,1-.5-.08,1.51,1.51,0,0,1-1-1.42V11.55C0,5.4,5.2,0,11.14,0h27C44.54,0,48,6,48,11.55v27C48,44.7,43.94,49,38.13,49H13.28L2.7,63.07A1.51,1.51,0,0,1,1.5,63.67ZM11.14,3C6.88,3,3,7.08,3,11.55V57.68L11.34,46.6a1.47,1.47,0,0,1,1.19-.6h25.6C42.3,46,45,43.07,45,38.55v-27C45,7.41,42.59,3,38.13,3Z" style="fill-rule:evenodd"/></g><path d="M16,23.27a4.28,4.28,0,1,1-4.28,4.28l0-.61a8.57,8.57,0,0,1,8.57-8.56v2.44a6.11,6.11,0,0,0-4.33,1.79,8.17,8.17,0,0,0-.61.71A4.91,4.91,0,0,1,16,23.27Zm11,0a4.28,4.28,0,1,1-4.29,4.28l0-.61a8.57,8.57,0,0,1,8.57-8.56v2.44A6.12,6.12,0,0,0,27,22.61a8.17,8.17,0,0,0-.61.71A5.06,5.06,0,0,1,27,23.27Z"/></svg>