<svg id="Layer_1" data-name="Layer 1" xmlns="http://www.w3.org/2000/svg" viewBox="0 0 66.32 69.11"><title>Group 31</title><g id="group-31svg"><path id="path-1" d="M33.79,69H15.49c-3.93,0-7.13-3.66-7.13-7.59V22.14c0-3.93,3.2-6.7,7.13-6.7H41.38c3.95,0,7.16,2.75,7.16,6.7V50.65Z" transform="translate(-3 0.09)" style="fill:#a999f6;fill-rule:evenodd"/><path id="path-2" d="M47.47,52.05H37.36c-2,0-4,1.6-4,3.57V68.57Z" transform="translate(-3 0.09)" style="fill:#8479d1;fill-rule:evenodd"/><path id="path-3" d="M30.67,67.23H11.92c-4.75,0-8.92-4-8.92-8.48V19.46C3,14.94,7.17,11,11.92,11H37.81c4.59,0,8,3.64,8,8.48V48a1.33,1.33,0,0,1-.28.82L31.73,66.71A1.35,1.35,0,0,1,30.67,67.23ZM11.92,13.66c-3.33,0-6.24,2.71-6.24,5.8V58.75c0,3.09,2.91,5.8,6.24,5.8H30l13.17-17V19.46a5.47,5.47,0,0,0-5.37-5.8Z" transform="translate(-3 0.09)" style="fill-rule:evenodd"/><path id="path-4" d="M30.23,67a1.42,1.42,0,0,1-.45-.08,1.34,1.34,0,0,1-.89-1.26V52.93c0-2.88,3.13-5.34,5.68-5.34h9.62a1.33,1.33,0,0,1,1,2.19l-14,16.78A1.34,1.34,0,0,1,30.23,67Zm4.34-16.77c-1.29,0-3,1.51-3,2.66V62l9.77-11.73Z" transform="translate(-3 0.09)" style="fill-rule:evenodd"/><path id="path-5" d="M40.5,30.62H26.21a1.34,1.34,0,0,1,0-2.68H40.5a1.34,1.34,0,1,1,0,2.68Z" transform="translate(-3 0.09)" style="fill-rule:evenodd"/><path id="path-6" d="M40.5,36.87H26.21a1.34,1.34,0,0,1,0-2.68H40.5a1.34,1.34,0,1,1,0,2.68Z" transform="translate(-3 0.09)" style="fill-rule:evenodd"/><path id="path-7" d="M40.5,43.12H26.21a1.34,1.34,0,0,1,0-2.68H40.5a1.34,1.34,0,1,1,0,2.68Z" transform="translate(-3 0.09)" style="fill-rule:evenodd"/></g><g id="group-31svg-2" data-name="group-31svg"><path id="path-1-2" data-name="path-1" d="M52.8,64.91H32.3c-4.4,0-8-4.1-8-8.5v-44c0-4.4,3.58-7.5,8-7.5h29c4.42,0,8,3.08,8,7.5V44.34Z" transform="translate(-3 0.09)" style="fill:#a999f6;fill-rule:evenodd"/><path id="path-2-2" data-name="path-2" d="M68.12,45.91H56.8c-2.21,0-4.48,1.79-4.48,4v14.5Z" transform="translate(-3 0.09)" style="fill:#8479d1;fill-rule:evenodd"/><path id="path-3-2" data-name="path-3" d="M49.3,62.91h-21c-5.32,0-10-4.44-10-9.5v-44c0-5.06,4.66-9.5,10-9.5h29c5.14,0,9,4.08,9,9.5V41.34a1.49,1.49,0,0,1-.32.92L50.49,62.33A1.48,1.48,0,0,1,49.3,62.91Zm-21-60c-3.72,0-7,3-7,6.5v44c0,3.46,3.26,6.5,7,6.5H48.57L63.32,40.83V9.41c0-3.71-2.59-6.5-6-6.5Z" transform="translate(-3 0.09)" style="fill-rule:evenodd"/><path id="path-4-2" data-name="path-4" d="M48.82,62.7a1.48,1.48,0,0,1-.51-.09,1.5,1.5,0,0,1-1-1.41V46.89c0-3.22,3.49-6,6.36-6H64.45a1.5,1.5,0,0,1,1.16,2.46L50,62.16A1.5,1.5,0,0,1,48.82,62.7Zm4.86-18.79c-1.45,0-3.36,1.7-3.36,3V57.05L61.25,43.91Z" transform="translate(-3 0.09)" style="fill-rule:evenodd"/><path id="path-5-2" data-name="path-5" d="M60.32,21.91h-16a1.5,1.5,0,0,1,0-3h16a1.5,1.5,0,0,1,0,3Z" transform="translate(-3 0.09)" style="fill-rule:evenodd"/><path id="path-6-2" data-name="path-6" d="M60.32,28.91h-16a1.5,1.5,0,0,1,0-3h16a1.5,1.5,0,0,1,0,3Z" transform="translate(-3 0.09)" style="fill-rule:evenodd"/><path id="path-7-2" data-name="path-7" d="M60.32,35.91h-16a1.5,1.5,0,1,1,0-3h16a1.5,1.5,0,0,1,0,3Z" transform="translate(-3 0.09)" style="fill-rule:evenodd"/></g></svg>