<?xml version="1.0" encoding="utf-8"?>
<!-- Generator: Adobe Illustrator 25.0.1, SVG Export Plug-In . SVG Version: 6.00 Build 0)  -->
<svg version="1.1" id="Layer_1" xmlns="http://www.w3.org/2000/svg" xmlns:xlink="http://www.w3.org/1999/xlink" x="0px" y="0px"
	 viewBox="0 0 65 57" style="enable-background:new 0 0 65 57;" xml:space="preserve">
<style type="text/css">
	.st0{fill:#A999F6;}
</style>
<g>
	<g>
		<path class="st0" d="M64.5,13.1v34.1c0,2.8-2.3,5.1-5.1,5.1h-48c-2.8,0-5.1-2.3-5.1-5.1V13.1c0-2.8,2.3-5.1,5.1-5.1h48
			C62.2,8,64.5,10.3,64.5,13.1z"/>
	</g>
</g>
<g>
	<g>
		<path d="M56.6,2.6H5.5C2.4,2.6,0,5,0,8v36.4c0,3,2.4,5.5,5.5,5.5h51.1c3,0,5.5-2.4,5.5-5.5V8C62,5,59.6,2.6,56.6,2.6z M55.8,6.2
			L31.1,30.9L6.2,6.2H55.8z M3.6,43.6V8.8l17.5,17.4L3.6,43.6z M6.2,46.2l17.5-17.5l6.1,6.1c0.7,0.7,1.9,0.7,2.6,0l6-6l17.4,17.4
			H6.2z M58.4,43.6L41,26.2L58.4,8.8V43.6z"/>
	</g>
</g>
</svg>
