<?xml version="1.0" encoding="utf-8"?>
<!-- Generator: Adobe Illustrator 25.0.1, SVG Export Plug-In . SVG Version: 6.00 Build 0)  -->
<svg version="1.1" id="Layer_1" xmlns="http://www.w3.org/2000/svg" xmlns:xlink="http://www.w3.org/1999/xlink" x="0px" y="0px"
	 viewBox="0 0 65 57" style="enable-background:new 0 0 65 57;" xml:space="preserve">
<style type="text/css">
	.st0{fill:#A999F6;}
</style>
<g>
	<g>
		<path class="st0" d="M61.2,7.2v9.2c0,0.5-0.2,1-0.6,1.4L42.7,33.9v15.8c0,0.7-0.4,1.3-1,1.6l-11.1,5.5C30.4,57,30.1,57,29.8,57
			c-1,0-1.8-0.8-1.8-1.8V33.9L10.1,17.8c-0.4-0.3-0.6-0.9-0.6-1.4V7.2c0-1,0.8-1.8,1.8-1.8h48C60.4,5.3,61.2,6.1,61.2,7.2z"/>
	</g>
</g>
<g>
	<g>
		<path d="M58.1,0H5.8c-1.1,0-2,0.9-2,2v10.1c0,0.6,0.2,1.1,0.7,1.5l19.4,17.5v23.2c0,1.1,0.9,2,2,2c0.3,0,0.6-0.1,0.9-0.2l12.1-6
			c0.7-0.3,1.1-1,1.1-1.8V31.1l19.4-17.5c0.4-0.4,0.7-0.9,0.7-1.5V2C60.1,0.9,59.2,0,58.1,0z M56.1,11.2L36.6,28.7
			c-0.4,0.4-0.7,0.9-0.7,1.5V47l-8,4V30.2c0-0.6-0.2-1.1-0.7-1.5L7.8,11.2V4h48.3V11.2z"/>
	</g>
</g>
</svg>
