<?xml version="1.0" encoding="utf-8"?>
<!-- Generator: Adobe Illustrator 25.0.1, SVG Export Plug-In . SVG Version: 6.00 Build 0)  -->
<svg version="1.1" id="Layer_1" xmlns="http://www.w3.org/2000/svg" xmlns:xlink="http://www.w3.org/1999/xlink" x="0px" y="0px"
	 viewBox="0 0 65 57" style="enable-background:new 0 0 65 57;" xml:space="preserve">
<style type="text/css">
	.st0{fill:#A999F6;}
</style>
<path class="st0" d="M50.9,18v26.7c0,6.5-5,11.8-11.1,11.8h-8.5c-6.1,0-11.1-5.3-11.1-11.8V18c0-6.5,5-11.8,11.1-11.8h8.5
	C45.9,6.2,50.9,11.5,50.9,18z"/>
<path d="M31.2,45.9L21.8,36l3-2.9l6.3,6.7l6.3-6.7l3.1,2.9L31.2,45.9z M48.6,41.9V13.5C48.6,6.5,43,0.9,36,0.9h-9.6
	c-6.9,0-12.6,5.6-12.6,12.6v28.5c0,6.9,5.6,12.6,12.6,12.6H36C43,54.5,48.6,48.9,48.6,41.9z M36,5.1c4.6,0,8.4,3.8,8.4,8.4v28.5
	c0,4.6-3.8,8.4-8.4,8.4h-9.6c-4.6,0-8.4-3.8-8.4-8.4V13.5c0-4.6,3.8-8.4,8.4-8.4H36z M31.2,9.4c-1.2,0-2.1,0.9-2.1,2.1
	s0.9,2.1,2.1,2.1s2.1-0.9,2.1-2.1S32.4,9.4,31.2,9.4z M31.2,17.8c-1.2,0-2.1,0.9-2.1,2.1s0.9,2.1,2.1,2.1s2.1-0.9,2.1-2.1
	S32.4,17.8,31.2,17.8z M31.2,26.1c-1.2,0-2.1,0.9-2.1,2.1s0.9,2.1,2.1,2.1s2.1-0.9,2.1-2.1S32.4,26.1,31.2,26.1z"/>
</svg>
