<?xml version="1.0" encoding="utf-8"?>
<!-- Generator: Adobe Illustrator 25.0.1, SVG Export Plug-In . SVG Version: 6.00 Build 0)  -->
<svg version="1.1" id="Layer_1" xmlns="http://www.w3.org/2000/svg" xmlns:xlink="http://www.w3.org/1999/xlink" x="0px" y="0px"
	 viewBox="0 0 65 57" style="enable-background:new 0 0 65 57;" xml:space="preserve">
<style type="text/css">
	.st0{fill:#A999F6;}
</style>
<path class="st0" d="M59.6,40.1c0,2.2-0.9,4.6-1.1,5.2C51.9,61.1,26.3,61,19.3,44.8c-3.8,0-7.8-3.3-8.2-7.4c-0.2-1.4,0-2.8,0.5-4.1
	l-1.8-1.5C1.6,25,27.3-3.6,35.5,3.5c0.1,0,2.8,2.7,2.8,2.7l1.5-0.6c7.2-3,13.1-1.5,13.1,3.2c0,2.5-1.6,5.4-4.1,8
	c3.2,3,2.4,8.7,2.6,10.1c0.9,0.2,3.7,0.9,5,2.3c2.2,2.3,0.7,4.8,0.4,5.3c0.5,1.4,0.4,1.1,0.8,2.5C58.4,37,59.6,37.9,59.6,40.1z"/>
<path d="M44.1,25.8c0.4,0,0.8,0,1.1,0c0.2-0.5,0.2-1.3,0.1-2.1c-0.3-1.3-0.6-2.1-1.4-2c-0.8,0.1-0.8,1.1-0.5,2.4
	C43.5,24.8,43.8,25.4,44.1,25.8L44.1,25.8z M37.6,26.8c0.5,0.2,0.9,0.4,1,0.3c0.2-0.2-0.4-1.1-1.5-1.6c-1.2-0.5-2.6-0.3-3.7,0.4
	c-0.4,0.3-0.7,0.6-0.7,0.9c0.1,0.5,1.2-0.3,2.8-0.4C36.3,26.3,37,26.6,37.6,26.8L37.6,26.8z M36.5,27.5c-1.1,0.2-1.8,0.8-1.6,1.2
	c0.1,0,0.1,0.1,0.6-0.1c0.7-0.3,1.5-0.4,2.3-0.2c0.4,0,0.5,0.1,0.6-0.1C38.5,28,37.6,27.3,36.5,27.5L36.5,27.5z M43.1,29.5
	c0.4-0.8-1.3-1.7-1.7-0.9C40.9,29.5,42.6,30.4,43.1,29.5L43.1,29.5z M45,27c-0.9,0-1,1.9,0,1.9C45.9,29,45.9,27.1,45,27L45,27z
	 M18.3,36.7c-0.2,0-0.7,0.2-1-0.3c-0.6-1,1.4-2.5,0.4-4.4c-1.1-2.1-3.4-1.6-4.3-0.7c-1.1,1.2-1.1,2.9-0.6,2.9
	c0.5,0.1,0.5-0.8,0.9-1.4c0.5-0.7,1.4-0.9,2.2-0.5c0,0,0,0,0,0c1.4,0.9,0.2,2.2,0.3,3.5c0.2,2,2.2,2,2.6,1.1c0.1-0.1,0-0.2,0-0.3
	C18.7,36.8,18.8,36.5,18.3,36.7L18.3,36.7z M54.8,34.6c-0.4-1.4-0.3-1.1-0.8-2.5c0.3-0.4,1.9-2.9-0.4-5.3c-1.3-1.3-4.1-2-5-2.3
	c-0.2-1.4,0.6-7.1-2.6-10.1c2.5-2.6,4.1-5.5,4.1-8c0-4.8-5.9-6.2-13.1-3.2l-1.5,0.6c0,0-2.8-2.7-2.8-2.7C24.5-6-1.2,22.6,7,29.5
	L8.8,31c-0.5,1.3-0.7,2.7-0.5,4.1c0.4,4.1,4.4,7.4,8.2,7.3c7,16.2,32.6,16.2,39.2,0.4c0.2-0.5,1.1-3,1.1-5.2
	C56.8,35.5,55.6,34.6,54.8,34.6L54.8,34.6z M16.3,40.4c-2.8-0.1-5.8-2.6-6.1-5.5c-0.8-7.5,9-9.2,10.2-1.5C21,37,19.9,40.5,16.3,40.4
	L16.3,40.4z M14.1,26.5c-1.8,0.4-3.5,1.4-4.5,2.9c-0.6-0.5-1.7-1.5-1.9-1.8c-1.6-3,1.7-8.9,4.1-12.2C17.5,7.2,26.5,1,30.7,2.1
	c0.7,0.2,2.9,2.8,2.9,2.8s-4.2,2.3-8,5.5C20.4,14.4,16.4,20.2,14.1,26.5L14.1,26.5z M43.2,38.8c0,0-4.3,0.6-8.5-0.9
	c0.8-2.5,3.3,0.7,11.7-1.7c1.9-0.5,4.3-1.6,6.2-3.1c0.4,0.9,0.7,1.9,0.9,3c0.4-0.1,1.7-0.1,1.4,2.2c-0.4,2.4-1.4,4.4-3.2,6.2
	c-1.1,1.2-2.4,2.1-3.8,2.8c-0.8,0.4-1.6,0.8-2.5,1c-6.5,2.1-13.2-0.2-15.3-5.2c-0.2-0.4-0.3-0.8-0.4-1.2c-0.9-3.3-0.1-7.3,2.3-9.8
	c0.1-0.2,0.3-0.3,0.3-0.6c0-0.2-0.1-0.4-0.2-0.6c-0.9-1.2-3.8-3.3-3.2-7.4c0.4-2.9,3-5,5.4-4.9l0.6,0c1,0.1,1.9,0.2,2.8,0.2
	c1.4,0.1,2.7-0.1,4.2-1.4c0.5-0.4,0.9-0.8,1.6-0.9c0.6-0.1,1.2,0,1.7,0.3c1.2,0.8,1.4,2.8,1.5,4.2c0,0.8,0.1,2.8,0.2,3.4
	c0.1,1.3,0.4,1.5,1.1,1.7c0.4,0.1,0.7,0.2,1.3,0.4c1.6,0.5,2.6,0.9,3.2,1.5c0.3,0.3,0.5,0.7,0.6,1.1c0.2,1.4-1.1,3.1-4.4,4.6
	c-5.7,2.6-11.4,1.8-12.2,1.7c-2.5-0.3-3.8,2.8-2.4,5c2.8,4.1,14.9,2.4,18.4-2.6c0.1-0.1,0-0.2-0.1-0.1c-5.1,3.5-11.8,4.7-15.6,3.2
	c-0.6-0.2-1.8-0.8-1.9-2c5.3,1.6,8.6,0.1,8.6,0.1S43.5,38.8,43.2,38.8L43.2,38.8z M24.7,15.3c2-2.4,4.5-4.4,6.8-5.6c0,0,0.1,0,0.1,0
	c0,0,0,0.1,0,0.1c-0.2,0.3-0.5,1-0.6,1.5c0,0,0,0.1,0.1,0.1c0,0,0.1,0,0.1,0c1.4-1,3.8-2,6-2.1c0.1,0,0.1,0,0.1,0.1c0,0,0,0.1,0,0.1
	c-0.4,0.3-0.7,0.6-0.9,0.9c0,0,0,0.1,0,0.1c0,0,0,0,0.1,0c1.5,0,3.6,0.5,5,1.3c0.1,0.1,0,0.2-0.1,0.2c-8.5-1.9-15,2.3-16.4,3.3
	c0,0-0.1,0-0.1,0C24.7,15.4,24.7,15.4,24.7,15.3L24.7,15.3z"/>
</svg>
