<?xml version="1.0" encoding="utf-8"?>
<!-- Generator: Adobe Illustrator 25.0.1, SVG Export Plug-In . SVG Version: 6.00 Build 0)  -->
<svg version="1.1" id="Layer_1" xmlns="http://www.w3.org/2000/svg" xmlns:xlink="http://www.w3.org/1999/xlink" x="0px" y="0px"
	 viewBox="0 0 65 57" style="enable-background:new 0 0 65 57;" xml:space="preserve">
<style type="text/css">
	.st0{fill:#A999F6;}
</style>
<path class="st0" d="M59.2,30.4c0,6.7-2.6,13.1-7.4,17.9c-4.8,4.8-11.1,7.4-17.9,7.4c-6.7,0-13.1-2.6-17.9-7.4
	c-4.8-4.8-7.4-11.1-7.4-17.9c0-6.7,2.6-13.1,7.4-17.9C20.9,7.8,27.2,5.2,34,5.2c6.7,0,13.1,2.6,17.9,7.4
	C56.6,17.4,59.2,23.7,59.2,30.4z"/>
<path d="M49.7,8.7c-5-5-11.7-7.8-18.8-7.8c-7.1,0-13.8,2.8-18.8,7.8S4.2,20.4,4.2,27.5c0,7.1,2.8,13.8,7.8,18.8s11.7,7.8,18.8,7.8
	c7.1,0,13.8-2.8,18.8-7.8s7.8-11.7,7.8-18.8C57.5,20.4,54.7,13.7,49.7,8.7z M17.6,46.9c1.1-6.4,6.7-11.1,13.3-11.1
	c6.6,0,12.2,4.7,13.3,11.1c-3.8,2.6-8.4,4.1-13.3,4.1S21.4,49.5,17.6,46.9z M22.4,24.1c0-4.7,3.8-8.5,8.5-8.5s8.5,3.8,8.5,8.5
	s-3.8,8.5-8.5,8.5S22.4,28.8,22.4,24.1z M46.8,44.7c-0.8-3-2.5-5.7-4.8-7.8c-1.4-1.3-3.1-2.3-4.8-3c3.2-2.1,5.3-5.6,5.3-9.7
	c0-6.4-5.2-11.6-11.6-11.6s-11.6,5.2-11.6,11.6c0,4.1,2.1,7.6,5.3,9.7c-1.8,0.7-3.4,1.7-4.8,3c-2.3,2.1-4,4.8-4.8,7.8
	c-4.6-4.3-7.5-10.4-7.5-17.2C7.4,14.5,17.9,4,30.9,4s23.5,10.5,23.5,23.5C54.4,34.3,51.5,40.4,46.8,44.7z"/>
</svg>
