<?xml version="1.0" encoding="utf-8"?>
<!-- Generator: Adobe Illustrator 19.0.0, SVG Export Plug-In . SVG Version: 6.00 Build 0)  -->
<svg version="1.1" id="Capa_1" xmlns="http://www.w3.org/2000/svg" xmlns:xlink="http://www.w3.org/1999/xlink" x="0px" y="0px"
	 viewBox="-59 183.8 7819.5 475.1" style="enable-background:new -59 183.8 7819.5 475.1;" xml:space="preserve">
<g>
	<g>
		<path d="M105.4,403.1h-64c-7.6,0-14.1-2.7-19.4-8c-5.3-5.3-8-11.8-8-19.4v-9.1c0-20.2,7.1-37.4,21.4-51.7
			c14.3-14.3,31.5-21.4,51.7-21.4h18.3c4.9,0,9.2-1.8,12.8-5.4c3.6-3.6,5.4-7.9,5.4-12.8v-36.5c0-4.9-1.8-9.2-5.4-12.8
			c-3.6-3.6-7.9-5.4-12.8-5.4H87.2c-19.8,0-38.7,3.9-56.7,11.6c-18,7.7-33.5,18.1-46.7,31.3c-13.1,13.1-23.6,28.7-31.3,46.7
			c-7.7,18-11.6,36.9-11.6,56.7v201c0,15.2,5.3,28.2,16,38.8c10.7,10.7,23.6,16,38.8,16h109.6c15.2,0,28.2-5.3,38.8-16
			c10.7-10.7,16-23.6,16-38.8V457.9c0-15.2-5.3-28.2-16-38.8C133.6,408.4,120.7,403.1,105.4,403.1z"/>
		<path d="M400.1,419.1c-10.7-10.7-23.6-16-38.8-16h-64c-7.6,0-14.1-2.7-19.4-8c-5.3-5.3-8-11.8-8-19.4v-9.1
			c0-20.2,7.1-37.4,21.4-51.7c14.3-14.3,31.5-21.4,51.7-21.4h18.3c4.9,0,9.2-1.8,12.8-5.4c3.6-3.6,5.4-7.9,5.4-12.8v-36.5
			c0-4.9-1.8-9.2-5.4-12.8c-3.6-3.6-7.9-5.4-12.8-5.4H343c-19.8,0-38.7,3.9-56.7,11.6c-18,7.7-33.5,18.1-46.7,31.3
			c-13.1,13.1-23.6,28.7-31.3,46.7c-7.7,18-11.6,36.9-11.6,56.7v201c0,15.2,5.3,28.2,16,38.8c10.7,10.7,23.6,16,38.8,16h109.6
			c15.2,0,28.2-5.3,38.8-16c10.7-10.7,16-23.6,16-38.8V457.9C416.1,442.7,410.8,429.7,400.1,419.1z"/>
	</g>
</g>
<g>
	<path d="M852.4,620c-28.8,0-57.1-5-84.8-14.9c-27.7-9.9-52.9-25.1-75.6-45.6l49.1-58.9c17.3,14,35,25.2,53.2,33.5
		c18.2,8.3,38.1,12.4,59.7,12.4c17.3,0,30.7-3.1,40.2-9.5c9.5-6.3,14.3-15,14.3-26.2v-1.1c0-5.4-1-10.2-3-14.3
		c-2-4.1-5.8-8-11.4-11.6c-5.6-3.6-13.4-7.2-23.3-10.8c-9.9-3.6-22.8-7.4-38.7-11.3c-19.1-4.7-36.5-9.9-52-15.7
		c-15.5-5.8-28.7-12.9-39.5-21.3c-10.8-8.5-19.2-19-25.2-31.6c-6-12.6-8.9-28.3-8.9-47v-1.1c0-17.3,3.2-32.8,9.7-46.7
		c6.4-13.9,15.5-25.8,27.1-35.9c11.6-10.1,25.5-17.8,41.6-23.2c16.1-5.4,33.9-8.1,53.4-8.1c27.7,0,53.2,4.1,76.4,12.4
		c23.2,8.3,44.5,20.2,64,35.6l-43.2,62.6c-16.9-11.5-33.5-20.6-49.7-27.3c-16.2-6.7-32.4-10-48.6-10s-28.4,3.2-36.5,9.5
		c-8.1,6.3-12.2,14.1-12.2,23.5v1.1c0,6.1,1.2,11.4,3.5,15.9c2.3,4.5,6.6,8.6,12.7,12.1c6.1,3.6,14.5,7,25.2,10.3
		c10.6,3.2,24.1,7,40.3,11.3c19.1,5,36.2,10.7,51.2,17c15,6.3,27.6,13.9,37.9,22.7c10.3,8.8,18,19.2,23.3,31.1
		c5.2,11.9,7.9,26.1,7.9,42.7v1.1c0,18.7-3.4,35.4-10.2,50c-6.8,14.6-16.3,26.8-28.4,36.7c-12.2,9.9-26.7,17.5-43.5,22.7
		C891.6,617.3,872.9,620,852.4,620z"/>
	<path d="M1151,313.2h-115v-76.7h313.2v76.7h-115v301.3H1151V313.2z"/>
	<path d="M1412.9,236.6h172.8c47.9,0,84.6,12.8,110.2,38.3c21.6,21.6,32.4,50.4,32.4,86.4v1.1c0,30.6-7.5,55.5-22.4,74.8
		c-14.9,19.3-34.5,33.4-58.6,42.4l92.3,135h-97.2l-81-121h-1.1H1496v121h-83.2V236.6z M1580.3,420.2c20.5,0,36.3-4.9,47.3-14.6
		c11-9.7,16.5-22.7,16.5-38.9v-1.1c0-18-5.8-31.5-17.3-40.5c-11.5-9-27.5-13.5-48.1-13.5H1496v108.5H1580.3z"/>
	<path d="M1986.9,621c-29.2,0-56-5.1-80.5-15.4c-24.5-10.3-45.6-24.1-63.5-41.6c-17.8-17.5-31.7-38-41.6-61.6
		c-9.9-23.6-14.8-48.9-14.8-75.9v-1.1c0-27,5-52.3,15.1-75.9c10.1-23.6,24-44.3,41.8-62.1c17.8-17.8,39.1-31.9,63.7-42.1
		c24.7-10.3,51.6-15.4,80.7-15.4s56,5.1,80.5,15.4c24.5,10.3,45.6,24.1,63.5,41.6c17.8,17.5,31.7,38,41.6,61.6
		c9.9,23.6,14.8,48.9,14.8,75.9v1.1c0,27-5,52.3-15.1,75.9c-10.1,23.6-24,44.3-41.8,62.1c-17.8,17.8-39.1,31.9-63.7,42.1
		C2043,615.9,2016.1,621,1986.9,621z M1988,544.4c16.6,0,31.9-3.1,45.9-9.2c14-6.1,26-14.6,35.9-25.4c9.9-10.8,17.6-23.3,23.2-37.5
		c5.6-14.2,8.4-29.4,8.4-45.6v-1.1c0-16.2-2.8-31.5-8.4-45.9c-5.6-14.4-13.5-27-23.8-37.8c-10.3-10.8-22.4-19.3-36.4-25.6
		c-14-6.3-29.3-9.4-45.9-9.4c-16.9,0-32.3,3.1-46.2,9.2c-13.9,6.1-25.7,14.6-35.6,25.4c-9.9,10.8-17.6,23.3-23.2,37.5
		c-5.6,14.2-8.4,29.4-8.4,45.6v1.1c0,16.2,2.8,31.5,8.4,45.9c5.6,14.4,13.5,27,23.8,37.8c10.3,10.8,22.3,19.4,36.2,25.6
		C1955.7,541.2,1971.1,544.4,1988,544.4z"/>
	<path d="M2262.3,236.6h76.7l177.1,232.7V236.6h82.1v378h-70.7l-183.1-240.3v240.3h-82.1V236.6z"/>
	<path d="M2870.9,621c-29.5,0-56.4-4.9-80.7-14.6c-24.3-9.7-45.2-23.2-62.6-40.5c-17.5-17.3-31-37.8-40.8-61.6s-14.6-49.7-14.6-77.8
		v-1.1c0-27,4.9-52.3,14.8-75.9c9.9-23.6,23.7-44.3,41.3-62.1c17.6-17.8,38.5-31.9,62.6-42.1c24.1-10.3,50.6-15.4,79.4-15.4
		c16.9,0,32.3,1.2,46.2,3.5c13.9,2.3,26.7,5.7,38.6,10s23,9.7,33.5,16.2c10.4,6.5,20.5,13.9,30.2,22.1l-52.4,63.2
		c-7.2-6.1-14.4-11.5-21.6-16.2c-7.2-4.7-14.7-8.6-22.4-11.9c-7.7-3.2-16.1-5.8-25.1-7.6c-9-1.8-18.9-2.7-29.7-2.7
		c-15.1,0-29.3,3.2-42.4,9.5c-13.1,6.3-24.7,14.8-34.6,25.4c-9.9,10.6-17.6,23.1-23.2,37.3c-5.6,14.3-8.4,29.5-8.4,45.7v1.1
		c0,17.3,2.8,33.3,8.4,47.9c5.6,14.6,13.5,27.3,23.8,38.2c10.3,10.8,22.3,19.2,36.2,25.2c13.9,6,29.2,8.9,46.2,8.9
		c31,0,57.1-7.6,78.3-22.8v-54.4h-83.7v-71.8h164.2v164.2c-19.4,16.6-42.6,30.7-69.4,42.4C2936.1,615.2,2905.4,621,2870.9,621z"/>
	<path d="M3524.3,313.2h-115v-76.7h313.2v76.7h-115v301.3h-83.2V313.2z"/>
	<path d="M3786.2,236.6h284.6v74h-202.5v76.7h178.2v74h-178.2v79.4h205.2v74h-287.3V236.6z"/>
	<path d="M4283,620c-28.8,0-57.1-5-84.8-14.9c-27.7-9.9-52.9-25.1-75.6-45.6l49.1-58.9c17.3,14,35,25.2,53.2,33.5
		c18.2,8.3,38.1,12.4,59.7,12.4c17.3,0,30.7-3.1,40.2-9.5c9.5-6.3,14.3-15,14.3-26.2v-1.1c0-5.4-1-10.2-3-14.3
		c-2-4.1-5.8-8-11.4-11.6c-5.6-3.6-13.4-7.2-23.3-10.8c-9.9-3.6-22.8-7.4-38.7-11.3c-19.1-4.7-36.5-9.9-52-15.7
		c-15.5-5.8-28.7-12.9-39.5-21.3c-10.8-8.5-19.2-19-25.2-31.6c-6-12.6-8.9-28.3-8.9-47v-1.1c0-17.3,3.2-32.8,9.7-46.7
		c6.4-13.9,15.5-25.8,27.1-35.9c11.6-10.1,25.5-17.8,41.6-23.2c16.1-5.4,33.9-8.1,53.4-8.1c27.7,0,53.2,4.1,76.4,12.4
		c23.2,8.3,44.5,20.2,64,35.6l-43.2,62.6c-16.9-11.5-33.5-20.6-49.7-27.3c-16.2-6.7-32.4-10-48.6-10s-28.4,3.2-36.5,9.5
		c-8.1,6.3-12.2,14.1-12.2,23.5v1.1c0,6.1,1.2,11.4,3.5,15.9c2.3,4.5,6.6,8.6,12.7,12.1c6.1,3.6,14.5,7,25.2,10.3
		c10.6,3.2,24.1,7,40.3,11.3c19.1,5,36.2,10.7,51.2,17c15,6.3,27.6,13.9,37.9,22.7c10.3,8.8,18,19.2,23.3,31.1
		c5.2,11.9,7.9,26.1,7.9,42.7v1.1c0,18.7-3.4,35.4-10.2,50c-6.8,14.6-16.3,26.8-28.4,36.7c-12.2,9.9-26.7,17.5-43.5,22.7
		C4322.2,617.3,4303.5,620,4283,620z"/>
	<path d="M4581.6,313.2h-115v-76.7h313.2v76.7h-115v301.3h-83.2V313.2z"/>
	<path d="M4847.3,236.6h83.2v378h-83.2V236.6z"/>
	<path d="M5024.9,236.6h89.6l99.4,159.8l99.4-159.8h89.6v378h-82.1V367.8l-106.4,161.5h-2.2L5107,369.4v245.2h-82.1V236.6z"/>
	<path d="M5677.2,621c-29.2,0-56-5.1-80.5-15.4c-24.5-10.3-45.6-24.1-63.5-41.6c-17.8-17.5-31.7-38-41.6-61.6
		c-9.9-23.6-14.8-48.9-14.8-75.9v-1.1c0-27,5-52.3,15.1-75.9c10.1-23.6,24-44.3,41.8-62.1c17.8-17.8,39.1-31.9,63.7-42.1
		c24.7-10.3,51.6-15.4,80.7-15.4s56,5.1,80.5,15.4c24.5,10.3,45.6,24.1,63.5,41.6c17.8,17.5,31.7,38,41.6,61.6
		c9.9,23.6,14.8,48.9,14.8,75.9v1.1c0,27-5,52.3-15.1,75.9c-10.1,23.6-24,44.3-41.8,62.1c-17.8,17.8-39.1,31.9-63.7,42.1
		C5733.3,615.9,5706.4,621,5677.2,621z M5678.3,544.4c16.6,0,31.9-3.1,45.9-9.2c14-6.1,26-14.6,35.9-25.4
		c9.9-10.8,17.6-23.3,23.2-37.5c5.6-14.2,8.4-29.4,8.4-45.6v-1.1c0-16.2-2.8-31.5-8.4-45.9c-5.6-14.4-13.5-27-23.8-37.8
		c-10.3-10.8-22.4-19.3-36.4-25.6c-14-6.3-29.3-9.4-45.9-9.4c-16.9,0-32.3,3.1-46.2,9.2c-13.9,6.1-25.7,14.6-35.6,25.4
		c-9.9,10.8-17.6,23.3-23.2,37.5c-5.6,14.2-8.4,29.4-8.4,45.6v1.1c0,16.2,2.8,31.5,8.4,45.9c5.6,14.4,13.5,27,23.8,37.8
		c10.3,10.8,22.3,19.4,36.2,25.6C5646,541.2,5661.4,544.4,5678.3,544.4z"/>
	<path d="M5952.6,236.6h76.7l177.1,232.7V236.6h82.1v378h-70.7l-183.1-240.3v240.3h-82.1V236.6z"/>
	<path d="M6383,236.6h83.2v378H6383V236.6z"/>
	<path d="M6690.3,233.9h76.7l162,380.7H6842l-34.6-84.8h-159.8l-34.6,84.8h-84.8L6690.3,233.9z M6777.7,456.3l-50.2-122.6
		l-50.2,122.6H6777.7z"/>
	<path d="M6987.3,236.6h83.2v302.9h188.5v75.1h-271.6V236.6z"/>
	<path d="M7456.5,620c-28.8,0-57.1-5-84.8-14.9c-27.7-9.9-52.9-25.1-75.6-45.6l49.1-58.9c17.3,14,35,25.2,53.2,33.5
		c18.2,8.3,38.1,12.4,59.7,12.4c17.3,0,30.7-3.1,40.2-9.5c9.5-6.3,14.3-15,14.3-26.2v-1.1c0-5.4-1-10.2-3-14.3
		c-2-4.1-5.8-8-11.4-11.6c-5.6-3.6-13.4-7.2-23.3-10.8c-9.9-3.6-22.8-7.4-38.7-11.3c-19.1-4.7-36.5-9.9-52-15.7
		c-15.5-5.8-28.7-12.9-39.5-21.3c-10.8-8.5-19.2-19-25.2-31.6c-6-12.6-8.9-28.3-8.9-47v-1.1c0-17.3,3.2-32.8,9.7-46.7
		c6.4-13.9,15.5-25.8,27.1-35.9c11.6-10.1,25.5-17.8,41.6-23.2c16.1-5.4,33.9-8.1,53.4-8.1c27.7,0,53.2,4.1,76.4,12.4
		c23.2,8.3,44.5,20.2,64,35.6l-43.2,62.6c-16.9-11.5-33.5-20.6-49.7-27.3c-16.2-6.7-32.4-10-48.6-10s-28.4,3.2-36.5,9.5
		c-8.1,6.3-12.2,14.1-12.2,23.5v1.1c0,6.1,1.2,11.4,3.5,15.9c2.3,4.5,6.6,8.6,12.7,12.1c6.1,3.6,14.5,7,25.2,10.3
		c10.6,3.2,24.1,7,40.3,11.3c19.1,5,36.2,10.7,51.2,17c15,6.3,27.6,13.9,37.9,22.7c10.3,8.8,18,19.2,23.3,31.1
		c5.2,11.9,7.9,26.1,7.9,42.7v1.1c0,18.7-3.4,35.4-10.2,50c-6.8,14.6-16.3,26.8-28.4,36.7c-12.2,9.9-26.7,17.5-43.5,22.7
		C7495.7,617.3,7477,620,7456.5,620z"/>
</g>
</svg>
