<svg xmlns="http://www.w3.org/2000/svg" viewBox="0 0 124.74 126.98"><title>mascot-2</title><g style="isolation:isolate"><g id="Layer_1" data-name="Layer 1"><path d="M89.54,113c-.57,4.93-12.32,6.45-16.87,8s-2.46,3.78-6.06,6c-.2-9.85-11.19-6.63-22-6.63S37,113.72,37,113.72s-.76,2.08-4.17,2.65c2.46-1.33,1.52-3.79-3.79-4.93s-7.39-6.06-5.69-12.88c-1.14,1.51-2.84,3.41-5.49,2.27,4.16-3.22,1.32-5.31-3.79-7.58C6,89.65,6.9,83.59,12.59,75.82,10.32,77.14,8,74.48,8,74.48c1.33,1,5.68-1.32,2.09-5.3s-7.78-4.74-7.58-12.7C3.11,45.67,16.38,33,32.68,22.75,49.17,12.32,50.5,8.34,50.5,8.34s1.32.76,1.7,3.41a6.59,6.59,0,0,0,2.28-5.69s2.08.38,2.84,5.12C59.59,3.6,68.31,0,68.31,0s-1.83,7.41,2.08,10.17c.44-1.31.72-2,.72-2s-1.3.72,7.53,5.5,58.42,29.17,44.09,47.85c-3.48,5.65-1.09,7.16,4.55,6.73a7.44,7.44,0,0,1-5.64,3.69s5.86,6.51-1.08,12.16-20.42,10.2-12.39,14.55c-3.47,1.95-4.33.22-4.33.22s3.9,8.9-4.35,10.85C93,111,91,111.86,92.76,115.12,91.67,116.21,90,113.84,89.54,113Z" transform="translate(-2.54)" style="fill:#782600"/><path d="M111.7,58.51a1.11,1.11,0,0,0,0-.13Z" transform="translate(-2.54)" style="fill:#782600"/><path d="M71.05,8.31l.06-.17S71,8.18,71.05,8.31Z" transform="translate(-2.54)" style="fill:#782600"/><path d="M37,113.82l0-.1Z" transform="translate(-2.54)" style="fill:#782600"/><path d="M127.28,68.22c-5.64.43-8-1.08-4.55-6.73,14.33-18.68-35.26-43.07-44.09-47.85C71.92,10,71.07,8.72,71.05,8.31c-.11.28-.35.92-.66,1.86C66.48,7.41,68.31,0,68.31,0L68.2.05c-5,6.38.62,13.38,4.65,14.89-2.6-2-1.16-3.76-1.16-3.76a70.44,70.44,0,0,0,7.53,4.92C91.09,22.19,84.43,30,84.43,30s3.48-2,3.19-.29,2,6.09,3.47,4,3.19-2.31,2,0S91.67,37.53,97.46,37c19.11-1.45,23.75,15.92,20.85,19.11s-2.89,8.1,1.74,12.16c-4.6,0-7.92-8.56-8.35-9.71a11.84,11.84,0,0,1-.63,8.84c1.44-4-5.5-9.84-10.71-7.24s-44.3,11-58.78,7.53-20.27,3.18-19.69,9c-2.89-2.31-2-8.1-2-8.1s-1.45,2.89-6.08,4.92c2-1.74,4.63-5.79-1.74-10.42-9.26-6.08-3.47-20.56,7.24-21.72s12.45.58,12.16-2-1.45-5.8,1.74-4.06,2,0,1.45-7.53a12.87,12.87,0,0,1,1.83-7.39q-1.76,1.16-3.79,2.46C16.38,33,3.11,45.67,2.55,56.48c-.2,8,4,8.72,7.58,12.7S9.37,75.44,8,74.48c0,0,2.28,2.66,4.55,1.34C6.9,83.59,6,89.65,14.11,93.25c5.11,2.27,8,4.36,3.79,7.58,2.65,1.14,4.35-.76,5.49-2.27-1.7,6.82.38,11.75,5.69,12.88s6.25,3.6,3.79,4.93c3-.49,3.92-2.12,4.13-2.55l0-.1,0,.1c-.35.83-2.4,6.53,7.62,6.53,10.8,0,21.79-3.22,22,6.63,3.6-2.27,1.51-4.54,6.06-6s16.3-3,16.87-8c.48.88,2.13,3.25,3.22,2.16-1.74-3.26.21-4.12,6.73-5.43,8.25-2,4.35-10.85,4.35-10.85s.86,1.73,4.33-.22c-8-4.35,5.43-8.91,12.39-14.55s1.08-12.16,1.08-12.16A7.44,7.44,0,0,0,127.28,68.22Z" transform="translate(-2.54)" style="fill:#782600;opacity:0.5;mix-blend-mode:multiply"/><path d="M42.44,30.21a49.67,49.67,0,0,1-14.3,18C26.3,49.68,34.8,51,38.87,56.83c-3.2-.86-4.2-.37-4.2-.37s3.46,1.36,4.94,3.45c0,0-11.68-2.26-15.16,4.94-2,4.06,2.83,12.81,12.94,18.24,10.23,5.67,15,7.63,16,11.09s-4.07,3-4.07,3a11.13,11.13,0,0,0,8.14,1.35,7.78,7.78,0,0,0,1.6,5.43s2-3.7,3.83-4.07c1.35-.37-1.86,3.08-1.86,3.08s6.78,1.11,10.48-2.22c0,2.58,3.7.86,5-2.71,5.43.61,10.23-2.59,10.23-2.59s-4.43-2-3.82-3.57,3.7-9.74,13.81-15.41,15.65-10.36,9.74-16.52S93.22,54,91.26,55a38.92,38.92,0,0,1,4.68-2.59,14.72,14.72,0,0,0-9.37,1.36c7.52-6.78,7.27-5.92,4.93-11S78.8,26.38,77.69,26.51,67.09,33,66,40.81c-1.84-5.3-3.32-4.93-6.28,6.65-2.59-2.34-5.92-9.74-5.92-9.74a6.36,6.36,0,0,0-1.23,4.44C50,35.88,44.17,30.45,42.44,30.21Z" transform="translate(-2.54)" style="fill:#782600;opacity:0.5;mix-blend-mode:multiply"/><path d="M44.41,33.07A45.61,45.61,0,0,1,31.28,49.59c-1.7,1.36,6.11,2.6,9.85,7.92-3-.79-3.85-.33-3.85-.33s3.17,1.24,4.53,3.16c0,0-10.72-2.07-13.92,4.53-1.82,3.74,2.6,11.77,11.88,16.75,9.4,5.21,13.8,7,14.71,10.19s-3.73,2.71-3.73,2.71a10.18,10.18,0,0,0,7.47,1.25,7.11,7.11,0,0,0,1.47,5S61.5,97.35,63.2,97c1.24-.34-1.7,2.82-1.7,2.82s6.23,1,9.62-2c0,2.37,3.4.79,4.64-2.49a15.72,15.72,0,0,0,9.39-2.38s-4.07-1.81-3.51-3.29A27.65,27.65,0,0,1,94.32,75.51c9.28-5.2,14.37-9.51,8.94-15.17s-12.22-5.43-14-4.52a35.71,35.71,0,0,1,4.3-2.38,13.61,13.61,0,0,0-8.6,1.24c6.9-6.22,6.67-5.43,4.52-10.07s-11.65-15-12.67-14.94S67,35.67,66,42.8c-1.7-4.86-3.06-4.52-5.78,6.11C57.88,46.76,54.82,40,54.82,40a5.84,5.84,0,0,0-1.13,4.08C51.31,38.28,46,33.3,44.41,33.07Z" transform="translate(-2.54)" style="fill:#f91"/><g style="opacity:0.5;mix-blend-mode:multiply"><path d="M103.26,60.34c-5.43-5.66-12.22-5.43-14-4.52a35.71,35.71,0,0,1,4.3-2.38,13.61,13.61,0,0,0-8.6,1.24c6.9-6.22,6.67-5.43,4.52-10.07s-11.65-15-12.67-14.94S67,35.67,66,42.8c-1.57-4.5-2.86-4.54-5.19,3.9v0s1.83-3.25,2.94-3.35,1.42,4.36,1.42,4.36S69.36,35.27,75.54,34,89.73,46,85.88,51.07,79.8,61.72,74.73,59.89c-4.25-1.31-5.07-1.11-5.07-1.11s7.44,1.95,9.85,3.36a12.26,12.26,0,0,1,5.87-5S83.45,59.39,83.86,61c4.66-3.25,10.33-5.27,14.8-1.62s3,8.72-1.32,10.84c-5.43,2.66-14.9,7.3-16,3.76-3.14-9.84-10.64-12.78-10.64-12.78s6.08,5.78,5.57,8.11c-5.77-2.43-18.65-3.14-25.85,2,1.22-4.26,5.88-9.43,5.88-9.43a37.15,37.15,0,0,0-7.4,8.62c-3.14,5.17-4.66,10.54-9.83,7.4S27.59,67.8,33.17,64.15a9.7,9.7,0,0,1,10.24-.71,13.7,13.7,0,0,0-.31-2.13c1.93.31,2.32,3,2.32,3A33.06,33.06,0,0,1,52.23,61c-5,1.32-5.27,1.32-7.42-2.77-2.23-3.17-11.55-7.84-9.22-10.49,4-4.12,7.21-9.32,10.28-10.37s9.32,11,9.32,11-.21-4.24.21-4.34,2.86,2.54,2.86,2.54l.05-.12A57.66,57.66,0,0,1,54.82,40a5.84,5.84,0,0,0-1.13,4.08c-2.38-5.77-7.7-10.75-9.28-11A45.61,45.61,0,0,1,31.28,49.59c-1.7,1.36,6.11,2.6,9.85,7.92-3-.79-3.85-.33-3.85-.33s3.17,1.24,4.53,3.16c0,0-10.72-2.07-13.92,4.53-1.82,3.74,2.6,11.77,11.88,16.75,9.4,5.21,13.8,7,14.71,10.19s-3.73,2.71-3.73,2.71a10.18,10.18,0,0,0,7.47,1.25,7.11,7.11,0,0,0,1.47,5S61.5,97.35,63.2,97c1.24-.34-1.7,2.82-1.7,2.82s6.23,1,9.62-2c0,2.37,3.4.79,4.64-2.49a15.72,15.72,0,0,0,9.39-2.38s-4.07-1.81-3.51-3.29A27.65,27.65,0,0,1,94.32,75.51C103.6,70.31,108.69,66,103.26,60.34ZM81.73,92.64c-4.54,2.13-6.27-.27-6.27-.27s-2.14,5.47-2.93,4.54-.14-3.47-.14-3.47-3.33,4.4-8,5.07A6.34,6.34,0,0,0,65.72,94s-4.54,0-6,3.73c-.26-1.86,1.07-4.53,1.07-4.53s-1.33,1.6-5.61,1.2a2.33,2.33,0,0,0,1.61-2.94c4.8,2.41,7.74.27,13.08-.53s7.6-1.47,11.2-4C79.46,89.17,78.53,91.84,81.73,92.64Z" transform="translate(-2.54)" style="fill:#c97106"/></g><path d="M61.36,69.66s8.92-1.74,14.71.93,4.29,7.3-3.82,11.82-12.44,4.11-18.19.69C47.22,79.05,44.21,72.91,61.36,69.66Z" transform="translate(-2.54)" style="fill:#573220"/><path d="M58.89,82.15S56.67,78,52.83,77.6c-2.53-.4-2.63,1.11-.1,1.82S57.48,80.22,58.89,82.15Z" transform="translate(-2.54)" style="fill:#573220;mix-blend-mode:multiply"/><path d="M67.38,80.73s1.82-3.33,4.54-3.23,4.25-.71,3.43-1.52-4.94-1-7,1.92S67.38,80.73,67.38,80.73Z" transform="translate(-2.54)" style="fill:#573220;mix-blend-mode:multiply"/><path d="M52.25,58c0,1.53-.59,2.75-1.23,2.72S49.91,59.42,50,57.88s.59-2.75,1.23-2.72S52.29,56.47,52.25,58Z" transform="translate(-2.54)"/><path d="M52,57.09c0,.61-.19,1.1-.47,1.11s-.53-.48-.56-1.08.19-1.09.47-1.1S51.92,56.49,52,57.09Z" transform="translate(-2.54)" style="fill:#fff"/><path d="M73.5,55.23c0,1.66-.65,3-1.33,2.94S71,56.76,71,55.1s.64-3,1.33-3S73.54,53.56,73.5,55.23Z" transform="translate(-2.54)"/><path d="M73.17,54.24c0,.65-.21,1.19-.51,1.19s-.57-.51-.6-1.16.2-1.18.51-1.19S73.14,53.59,73.17,54.24Z" transform="translate(-2.54)" style="fill:#fff"/><path d="M53.17,55.08s-5.36-6.18-6.55-4.87-2.91,4.27-1.13,4.51S53.87,55.73,53.17,55.08Z" transform="translate(-2.54)" style="fill:#c97106;opacity:0.5;mix-blend-mode:multiply"/><path d="M66.75,51.3a53.69,53.69,0,0,1,3.4-5.87c1.52-2.09,2.61-3,4.34-2s4.57,4.71,4.21,5.36-2.76-.65-5.07-1.3S66.83,52.67,66.75,51.3Z" transform="translate(-2.54)" style="fill:#c97106;opacity:0.5;mix-blend-mode:multiply"/><path d="M53,54s-5.36-6.19-6.54-4.88-2.91,4.28-1.13,4.52S53.75,54.63,53,54Z" transform="translate(-2.54)" style="fill:#762b04"/><path d="M66.62,50.19A54.71,54.71,0,0,1,70,44.33c1.52-2.1,2.6-3,4.34-2s4.56,4.71,4.2,5.36-2.75-.65-5.06-1.3S66.7,51.57,66.62,50.19Z" transform="translate(-2.54)" style="fill:#762b04"/><path d="M45.42,64.31s16.07-10.2,34.09-2.17C66.7,55.62,56.06,57.8,45.42,64.31Z" transform="translate(-2.54)" style="fill:#c97106;mix-blend-mode:multiply"/><path d="M52.42,82.07s-4.05,5,.85,7.13S62.85,92,65.51,90.59s8.51-.32,11.92-4,4.46-6.81,1.59-9.8C77.32,79,64.33,91.87,52.42,82.07Z" transform="translate(-2.54)" style="fill:#fed57b"/><path d="M54,84.38a18.12,18.12,0,0,0,6,1.91c3.48.46,2.57,3.3-.17,3.66S53.13,88,52.58,86,53.31,83.91,54,84.38Z" transform="translate(-2.54)" style="fill:#fed57b;mix-blend-mode:screen"/><path d="M67.21,85.55s5.92-1.76,9.44-5.18c1.94-2.22,3.51,5.08-3.61,7.31C67.49,89,65.64,86.47,67.21,85.55Z" transform="translate(-2.54)" style="fill:#fed57b;mix-blend-mode:screen"/><path d="M63.87,85.66a4.13,4.13,0,0,0,1.34,3c-.88.26-2.17,2.63-3.71,2.68a8,8,0,0,0,3.71-.57,23.3,23.3,0,0,1,5.12-1.18c1.34-.26,1.44-.42,1.44-.42a10.36,10.36,0,0,1-5.26-.62A6.87,6.87,0,0,1,63.87,85.66Z" transform="translate(-2.54)" style="fill:#573220"/><path d="M55.7,87.11a6.39,6.39,0,0,1-.75.32c-.25.08-.54.2-.89.3l-.56.15-.63.14c-.43.1-.91.17-1.42.25s-1.05.13-1.61.14c-.28,0-.57,0-.86,0l-.87,0h-.45l-.44-.05-.89-.09c-.59-.07-1.18-.2-1.76-.29s-1.13-.3-1.67-.44-1-.36-1.53-.53-.91-.39-1.33-.57A7.93,7.93,0,0,1,39,85.9l-.82-.46L37.42,85l.74.34.85.39c.33.16.72.28,1.13.45s.85.35,1.34.49l1.52.47,1.65.38c.58.09,1.15.21,1.73.28l.88.1.44,0,.43,0L49,88c.28,0,.56,0,.84,0,.55,0,1.08,0,1.59-.07s1-.1,1.41-.16.84-.14,1.19-.22.65-.16.9-.21C55.42,87.22,55.7,87.11,55.7,87.11Z" transform="translate(-2.54)"/><path d="M56.06,88l-.6.15-1.6.4L49,89.71c-.88.21-1.74.47-2.57.66l-1.17.34L44.23,91c-.32.09-.61.21-.87.29l-.68.22-.6.19.56-.27c.18-.07.4-.17.65-.29s.54-.26.87-.37l1-.36c.37-.14.76-.29,1.17-.41.81-.23,1.68-.49,2.57-.71L50.24,89c.44-.11.87-.19,1.29-.28.83-.16,1.61-.3,2.29-.41s1.23-.18,1.62-.24Z" transform="translate(-2.54)"/><path d="M56.71,89s-.25.11-.7.27-1.07.46-1.82.79c-.37.15-.77.35-1.2.55s-.85.43-1.31.66-.91.48-1.38.74-.95.52-1.41.81-.93.56-1.37.86l-.66.43-.63.46-.61.44c-.2.14-.39.29-.57.44a13,13,0,0,0-1,.82c-.31.27-.6.52-.85.72l-.62.61-.55.51.48-.58c.16-.17.36-.4.57-.65l.8-.79c.29-.29.63-.58,1-.89l.55-.48.6-.46.63-.47.66-.46c.44-.3.91-.6,1.38-.88s1-.55,1.42-.81,1-.49,1.42-.72.92-.42,1.35-.6.85-.35,1.24-.49c.77-.3,1.42-.49,1.88-.63S56.71,89,56.71,89Z" transform="translate(-2.54)"/><path d="M71.7,84.11,74.23,83c.76-.31,1.64-.71,2.58-1.11s2-.86,3-1.32l1.48-.69c.48-.26,1-.46,1.42-.71s.9-.46,1.31-.7.8-.44,1.13-.67A10.61,10.61,0,0,0,86,77.2a6.51,6.51,0,0,0,.68-.53l.55-.52-.49.58c-.16.18-.39.36-.64.6a8.93,8.93,0,0,1-.89.7c-.33.25-.72.48-1.12.74s-.83.51-1.28.76c-.9.51-1.9,1-2.9,1.46s-2,.9-3,1.28-1.86.71-2.64,1-1.44.48-1.9.63Z" transform="translate(-2.54)"/><path d="M71.48,85.33l.79-.24c.51-.13,1.23-.34,2.1-.55s1.89-.43,3-.65l1.7-.31,1.77-.27c.59-.07,1.18-.16,1.77-.21S83.77,83,84.33,83s1.1-.06,1.62,0,1,0,1.45,0l.65,0a5,5,0,0,1,.58.1,6.82,6.82,0,0,1,.92.18l.79.25-.8-.17a5.76,5.76,0,0,0-.93-.1,11.12,11.12,0,0,0-1.21-.06q-.68,0-1.44,0c-.51,0-1,.07-1.6.11s-1.13.12-1.71.18-1.17.14-1.76.22c-1.18.15-2.36.35-3.46.53l-1.59.27-1.42.25C72.66,85.1,71.48,85.33,71.48,85.33Z" transform="translate(-2.54)"/><path d="M72.2,86.69l.84-.17c.53-.09,1.29-.23,2.22-.36s2-.28,3.15-.38,2.4-.21,3.64-.26c.62,0,1.24,0,1.85,0s1.22,0,1.8,0,1.15.07,1.68.1,1,.1,1.5.15.88.15,1.26.21l.52.1.43.12.83.23-.85-.15-.43-.08-.53-.06c-.37,0-.79-.1-1.25-.12s-1-.08-1.5-.09-1.09,0-1.67,0-1.17,0-1.77,0L82.07,86c-1.24,0-2.47.12-3.62.21s-2.24.16-3.16.24Z" transform="translate(-2.54)"/><path d="M32.94,32.91a28.26,28.26,0,0,1-.26-10.16c.8-6.36-7.57-7.9-13-.71-4.29,5.64-6.44,15.44-1.21,16.51A11.52,11.52,0,0,0,27,37.21l2.41-1.07L28.1,30.5A33.56,33.56,0,0,1,32.94,32.91Z" transform="translate(-2.54)" style="fill:#f91"/><path d="M20.64,26.44a5.72,5.72,0,0,1,3.19-2.51c3.65-1,7,5.86,4.33,6.62.93,4.07-5.48,6.55-7.82,3.36C18.84,31.87,19.19,28.69,20.64,26.44Z" transform="translate(-2.54)" style="fill:#d35e00"/><path d="M23.83,23.93a5.72,5.72,0,0,0-3.19,2.51.16.16,0,0,1,0,.07c1.54-.92,3.36-1.45,5-.48,3.67,2.12,2.49,9.62-4.7,8.49,2.66,2.2,8.09-.2,7.23-4C30.81,29.79,27.48,22.94,23.83,23.93Z" transform="translate(-2.54)" style="fill:#d35e00;mix-blend-mode:multiply"/><g style="opacity:0.5;mix-blend-mode:multiply"><path d="M32.94,32.91a28.26,28.26,0,0,1-.26-10.16c.52-4.14-2.85-6.24-6.77-5.21,8.57-1.1,5.24,10.63,3.25,7s-7-3.93-10.16,2.5,3.32,11.61-1.25,9.12c-3.22-1.75-1.59-7.33-.35-10.46-2.61,5.45-3.17,12,1,12.82A11.52,11.52,0,0,0,27,37.21l2.41-1.07L28.1,30.5A33.56,33.56,0,0,1,32.94,32.91Z" transform="translate(-2.54)" style="fill:#c97106"/></g><path d="M25.31,20.84s-5.62.23-7.86,9c-1.12,2.36-2.25-2.13,2.8-8S29.79,19.61,25.31,20.84Z" transform="translate(-2.54)" style="fill:#fff;opacity:0.5;mix-blend-mode:screen"/><path d="M87.7,26.58A17.68,17.68,0,0,0,88.06,18c-1-4.77,4-11.12,13.16-6.8s11.62,11.87,9.28,16c-1.86,3.27-5.66,4.77-8.75,4.94s-3.45,1.06-3.45,1.06l-2.82.09L98,30.82l-4.15-.08,1.67-2.65-4.77,1.15a15.89,15.89,0,0,0-1.5-5A7.41,7.41,0,0,1,87.7,26.58Z" transform="translate(-2.54)" style="fill:#f91"/><path d="M91.67,25.51c-.57-2-.61-5.91.19-7.78,3-6.91,15.72,1.91,15.16,7.49-.3,2.9-8.6,5.53-13.13,5.52,2-2.33,1.67-2.65,1.67-2.65l-2.88.32A19.3,19.3,0,0,1,91.67,25.51Z" transform="translate(-2.54)" style="fill:#d35e00"/><g style="mix-blend-mode:multiply"><path d="M96.88,19.57c3.21-2.4,7.08.47,9.57,3C104,17.37,94.38,11.84,91.86,17.73c-.8,1.87-.76,5.8-.19,7.78a19.3,19.3,0,0,0,1,2.9l2.88-.32s.31.32-1.67,2.65a24.66,24.66,0,0,0,10.91-3l-.1-.15C97.53,31.73,91.67,23.49,96.88,19.57Z" transform="translate(-2.54)" style="fill:#c97106"/></g><g style="opacity:0.5;mix-blend-mode:multiply"><path d="M106.44,28.26c2.17-1.73,3.69-4.34-.22-8.9-7.38-8.69-15.42-3.47-13.46-6.95,1.46-2.31,5.06-2.08,8.38-1.24C92,6.92,87.09,13.26,88.06,18a17.68,17.68,0,0,1-.36,8.57,7.41,7.41,0,0,0,1.59-2.38,15.89,15.89,0,0,1,1.5,5l4.77-1.15-1.67,2.65,4.15.08L95.48,33.3l2.82-.09s.36-.88,3.45-1.06,6.89-1.67,8.75-4.94c1.17-2.09,1.14-5-.36-8a6,6,0,0,0,.2.6C113.82,28.26,104.27,30,106.44,28.26Z" transform="translate(-2.54)" style="fill:#c97106"/></g><path d="M100.34,12.69s6.87,2.74,9.48,9c1.5,3.62,1.25-3-3.86-7.1S96.73,11.2,100.34,12.69Z" transform="translate(-2.54)" style="fill:#fff;opacity:0.5;mix-blend-mode:screen"/><path d="M57.14,68.22A38,38,0,0,1,70,67.35c6.08.87-3.48-8.9-6.95-8.69S54.32,67.78,57.14,68.22Z" transform="translate(-2.54)" style="fill:#f91;opacity:0.5;mix-blend-mode:screen"/><path d="M62.14,67.57a23.69,23.69,0,0,1,5.21-.43c1.74.21-3.26-8.26-4.34-8.48S62.14,67.57,62.14,67.57Z" transform="translate(-2.54)" style="fill:#fff;opacity:0.5;mix-blend-mode:screen"/><path d="M52.94,60.55A30.92,30.92,0,0,1,71.65,59C64.54,56.49,59.6,57.31,52.94,60.55Z" transform="translate(-2.54)" style="fill:#fff"/><g style="opacity:0.5;mix-blend-mode:multiply"><path d="M78.66,72.39a1.55,1.55,0,0,1-1.54,2.13c-3.91.22-8.47-1.31-11.72,3.9S60.62,78,53.89,77.13a11.3,11.3,0,0,1-5-1.62c-1.08,2.62,1.49,5.41,5.17,7.59,5.75,3.42,10.08,3.83,18.19-.69C78.75,78.79,81,75.09,78.66,72.39Z" transform="translate(-2.54)" style="fill:#573220"/></g><path d="M74.25,70.9c-.06.31-.74.43-1.53.26s-1.36-.55-1.3-.86.76-.42,1.54-.25S74.32,70.6,74.25,70.9Z" transform="translate(-2.54)" style="fill:#fff;mix-blend-mode:screen"/><path d="M50.46,74.42A37.71,37.71,0,0,1,69.22,70.7C72.62,71.1,64.21,66.5,50.46,74.42Z" transform="translate(-2.54)" style="fill:#fff;mix-blend-mode:screen"/><path d="M37,113.82l0-.1Z" transform="translate(-2.54)" style="fill:none"/><path d="M119.52,70.56c3.81,6.35,1.27,13-10.49,16.21s-6.36,9.53-6.36,9.53A11.52,11.52,0,0,1,98.23,96c7.3,5.72,1.59,9.22-5.08,9.85s-2.23,6.36-2.23,6.36l-3.5-4.14c-.31,7.63-15.56,6.36-19.69,12.71-1-4.44-2.54-12.71-10.49-8.89S41.36,114.41,42,105.51c-1.59,5.09-6,4.13-6,4.13s6.67-6.67-2.55-4.44-7.62-13.67-7.62-13.67c-1.27,5.72-4.14,4.77-4.14,4.77s5.09-8-4.44-9.85c-4.79-1-7-3-8-4.88-2.13,5-1.07,9,4.94,11.68,5.11,2.27,8,4.36,3.79,7.58,2.65,1.14,4.35-.76,5.49-2.27-1.7,6.82.38,11.75,5.69,12.88s6.25,3.6,3.79,4.93c3-.49,3.92-2.12,4.13-2.55l0-.1,0,.1c-.35.83-2.4,6.53,7.62,6.53,10.8,0,21.79-3.22,22,6.63,3.6-2.27,1.51-4.54,6.06-6s16.3-3,16.87-8c.48.88,2.13,3.25,3.22,2.16-1.74-3.26.21-4.12,6.73-5.43,8.25-2,4.35-10.85,4.35-10.85s.86,1.73,4.33-.22c-8-4.35,5.43-8.91,12.39-14.55s1.08-12.16,1.08-12.16a7.48,7.48,0,0,0,5.26-3.07A15.62,15.62,0,0,1,119.52,70.56Z" transform="translate(-2.54)" style="fill:#782600;opacity:0.5;mix-blend-mode:multiply"/><path d="M65.5,3.52s-8.89,7.94-5.4,16.2C57.56,17.18,55,9.56,65.5,3.52Z" transform="translate(-2.54)" style="fill:#782600;mix-blend-mode:screen"/><path d="M55,8s0,6.67-5.09,8.9C54.7,18.45,57.88,12.1,55,8Z" transform="translate(-2.54)" style="fill:#782600;mix-blend-mode:screen"/><path d="M49.93,11.46s-1.59,4.45-9.53,8C47.71,19.72,50.25,14,49.93,11.46Z" transform="translate(-2.54)" style="fill:#782600;mix-blend-mode:screen"/></g></g></svg>